<?xml version="1.0" encoding="UTF-8"?>
<svg width="14px" height="14px" viewBox="0 0 14 14" version="1.1" xmlns="http://www.w3.org/2000/svg" xmlns:xlink="http://www.w3.org/1999/xlink">
    <title>tick</title>
    <g id="页面-1" stroke="none" stroke-width="1" fill="none" fill-rule="evenodd">
        <g id="YT-Saver-for-Android-How-To" transform="translate(-330, -335)">
            <g id="tick" transform="translate(330, 335)">
                <rect id="矩形" fill="#2A6DF4" x="0" y="0" width="14" height="14" rx="7"></rect>
                <path d="M10.689,4.60707692 C10.7849343,4.69838172 10.8406505,4.82406916 10.8438822,4.95646825 C10.8471139,5.08886735 10.7975962,5.21712343 10.7062308,5.313 L6.61176923,9.59376923 C6.61015384,9.59592307 6.60638461,9.597 6.60315384,9.60023077 L6.59776923,9.60776923 C6.56815384,9.63684615 6.53315384,9.65192307 6.49923077,9.67238461 C6.47769231,9.68423077 6.461,9.702 6.43892308,9.71115384 C6.31877658,9.76151602 6.18351005,9.76190361 6.06307692,9.71223077 C6.04584615,9.70523077 6.03184615,9.69015385 6.01461539,9.681 C5.97692308,9.66107692 5.93815385,9.64223077 5.90476923,9.611 C5.90207692,9.60884616 5.901,9.60507692 5.89776923,9.60184616 C5.89507692,9.60023077 5.89238461,9.59915385 5.89023077,9.597 L3.82792308,7.45607692 C3.73573516,7.36089964 3.68527149,7.23291189 3.68769679,7.10043002 C3.69012208,6.96794815 3.74523642,6.84189318 3.84084616,6.75015384 C3.93595493,6.65783152 4.06397094,6.60727623 4.19649718,6.60970234 C4.32902341,6.61212845 4.45510327,6.66733538 4.54676923,6.76307692 L6.24830769,8.52815384 L9.982,4.62323077 C10.0735626,4.52724675 10.1995332,4.47160909 10.332151,4.46857899 C10.4647687,4.46554888 10.593149,4.51537501 10.689,4.60707692 L10.689,4.60707692 Z" id="路径" fill="#FFFFFF" fill-rule="nonzero"></path>
            </g>
        </g>
    </g>
</svg>