<svg width="25" height="24" viewBox="0 0 25 24" fill="none" xmlns="http://www.w3.org/2000/svg">
<g id="Frame" clip-path="url(#clip0_743_270)">
<g id="check_fill">
<path id="Vector" fill-rule="evenodd" clip-rule="evenodd" d="M22.046 5.11094C22.3272 5.39224 22.4852 5.7737 22.4852 6.17144C22.4852 6.56919 22.3272 6.95065 22.046 7.23194L10.803 18.4749C10.6544 18.6236 10.478 18.7414 10.2839 18.8219C10.0898 18.9023 9.88167 18.9437 9.67153 18.9437C9.46138 18.9437 9.25329 18.9023 9.05915 18.8219C8.865 18.7414 8.6886 18.6236 8.54003 18.4749L2.95403 12.8899C2.81076 12.7516 2.69649 12.5861 2.61787 12.4031C2.53926 12.22 2.49788 12.0232 2.49615 11.824C2.49442 11.6249 2.53237 11.4274 2.60779 11.243C2.68322 11.0587 2.79459 10.8912 2.93543 10.7504C3.07627 10.6095 3.24375 10.4981 3.42809 10.4227C3.61244 10.3473 3.80996 10.3093 4.00913 10.3111C4.2083 10.3128 4.40513 10.3542 4.58813 10.4328C4.77114 10.5114 4.93666 10.6257 5.07503 10.7689L9.67103 15.3649L19.924 5.11094C20.0633 4.97155 20.2287 4.86098 20.4108 4.78554C20.5928 4.7101 20.788 4.67126 20.985 4.67126C21.1821 4.67126 21.3772 4.7101 21.5593 4.78554C21.7413 4.86098 21.9067 4.97155 22.046 5.11094Z" fill="#4EACEA"/>
</g>
</g>
<defs>
<clipPath id="clip0_743_270">
<rect width="24" height="24" fill="white" transform="translate(0.5)"/>
</clipPath>
</defs>
</svg>
