<svg xmlns="http://www.w3.org/2000/svg" xmlns:xlink="http://www.w3.org/1999/xlink" version="1.1">
    <symbol id="facebook" viewBox="0 0 22 22"> 
        <path d="M16.1071429,1.14732143 L16.1071429,4.38839287 L14.1796875,4.38839287 C13.4758185,4.38839287 13.0011161,4.53571429 12.7555804,4.83035714 C12.5100446,5.125 12.3872768,5.56696426 12.3872768,6.15624999 L12.3872768,8.47656249 L15.984375,8.47656249 L15.5055804,12.1104911 L12.3872768,12.1104911 L12.3872768,21.4285715 L8.63058037,21.4285715 L8.63058037,12.1104911 L5.5,12.1104911 L5.5,8.47656249 L8.63058037,8.47656249 L8.63058037,5.80022322 C8.63058037,4.27790178 9.05617559,3.09728423 9.9073661,2.25837054 C10.7585565,1.41945686 11.8921131,1 13.3080357,1 C14.5111607,1 15.4441964,1.04910714 16.1071429,1.14732143 Z" id="路径" fill="#333333"/>
    </symbol>
    <symbol id="share" viewBox="0 0 22 22"> 
        <path d="M12.1223454,17.7032484 C12.0910345,17.9299321 12.1664358,18.1583726 12.3260852,18.3205108 C12.4711101,18.4722493 12.6629383,18.5553798 12.8635944,18.5557904 C13.09483,18.5557904 13.2923235,18.4419725 13.4285788,18.2762436 L20.7859727,10.1478842 C20.9344632,9.99793962 21.0118985,9.79051356 20.9984696,9.57866884 C21.0120631,9.36679923 20.9346029,9.15930663 20.7859727,9.00945353 L13.3873245,0.835566926 C13.0925353,0.542085348 12.6196293,0.542085348 12.3248401,0.835566926 C12.165974,0.99815402 12.0911,1.22639952 12.1223454,1.45285034 L12.1223454,5.85476673 C5.97993996,5.85476673 0.99998839,10.8714256 0.99998839,17.0619204 C0.99957737,18.5979759 1.3136778,20.117458 1.92249429,21.5245467 C2.79999857,16.8570062 7.22242427,13.3114538 12.109853,13.3114538 L12.1223454,17.7032484 Z" id="路径" fill="#000000"/>
    </symbol>
    <symbol id="win" viewBox="0 0 32 32"> 
        <g transform="translate(4, 0)">
            <path d="M15.3684211,14.7368421 L31.1578947,14.7368421 L31.1578947,0.842105263 L15.3684211,3.26315789 L15.3684211,14.7368421 Z M13.2631579,14.7368421 L13.2631579,3.57894737 L1.68421053,5.36842105 L1.68421053,14.7368421 L13.2631579,14.7368421 Z M13.2631579,16.8421053 L1.68421053,16.8421053 L1.68421053,26.2105263 L13.2631579,28 L13.2631579,16.8421053 Z M15.3684211,16.8421053 L15.3684211,28.3157895 L31.1578947,30.7368421 L31.1578947,16.8421053 L15.3684211,16.8421053 Z" fill="currentColor" fill-rule="nonzero"/>
        </g>
    </symbol>
    <symbol id="mac" viewBox="0 0 24 24"> 
        <path d="M14.0286443,3 C12.3313776,5.94934441 11.3661819,9.2392729 11,12.7183593 L14.5779049,12.7183593 C14.2783858,14.0418549 14.0952827,15.3465262 14.0620977,16.6323177 C15.95906,16.4243077 17.6231417,15.8574161 18.6386273,15.1196642 L19.2376654,15.9894358 C17.8396494,16.9157912 16.0256984,17.5209413 14.0620733,17.747831 C14.0920862,18.4203771 14.1591882,19.0722692 14.2619153,19.7201968 C14.2758237,19.8059181 14.2897566,19.8916671 14.3050802,19.9772497 C14.3062027,19.983737 14.3073495,19.9902244 14.3084719,19.9967117 C14.369059,20.3324164 14.4414072,20.6668736 14.5242477,21 L22,21 L22,3 L14.0286443,3 Z M15.5,8 C15.2238576,8 15,7.77614237 15,7.5 L15,5.5 C15,5.22385763 15.2238576,5 15.5,5 C15.7761424,5 16,5.22385763 16,5.5 L16,7.5 C16,7.77614237 15.7761424,8 15.5,8 Z" fill="currentColor" fill-rule="nonzero"/><path d="M12.6142985,17.8662155 C12.6117916,17.8354978 12.610489,17.8203053 12.610489,17.8237708 C10.029241,17.9369382 7.24660154,17.3888995 4.90017115,16.0648238 L5.38602767,15.195608 C5.65803162,15.3399644 5.93492658,15.4726769 6.21543449,15.5948822 C6.22878031,15.6007042 6.24202781,15.6068311 6.25539821,15.6125976 C6.36204185,15.6585909 6.46937366,15.702505 6.57700042,15.745421 C6.76632421,15.8208844 6.95695064,15.8921616 7.14890427,15.9582545 C7.37295668,16.0354091 7.5985575,16.106215 7.82521517,16.1709772 C7.86930797,16.1835914 7.90821484,16.19396 7.94707255,16.204689 C7.98452931,16.2150021 8.02191234,16.2256757 8.05939368,16.2356839 C8.0813172,16.2415335 8.10331445,16.2469119 8.12526254,16.2526507 C8.17972723,16.2668728 8.23419192,16.2811782 8.28875493,16.294735 C8.32112406,16.3027748 8.35354235,16.3102047 8.38593606,16.317995 C8.43017634,16.3286409 8.47439203,16.3395639 8.51868146,16.3497662 C8.55835024,16.358915 8.59809275,16.3673984 8.63781069,16.3761867 C8.67482505,16.3843929 8.71183941,16.3929317 8.74887835,16.4008052 C8.80260571,16.412255 8.85635764,16.4229563 8.91013415,16.4337685 C8.9332374,16.4383983 8.95631608,16.4434163 8.97941934,16.4479352 C9.08844703,16.4693101 9.19752389,16.4889106 9.30660074,16.5077071 C9.3733544,16.5192124 9.44010805,16.5303018 9.50683713,16.5408645 C9.62886656,16.5601601 9.75082224,16.5780417 9.87267962,16.5941768 C9.8823879,16.5954521 9.89209618,16.5969492 9.90180447,16.5981967 C10.8229361,16.7184614 11.7366944,16.7503435 12.6102923,16.7077047 C12.6340346,15.7745861 12.7202786,14.8350912 12.8620441,13.9092085 L9.35895173,13.9092085 C9.37138816,13.7481625 9.38549589,13.5880869 9.40039012,13.4284271 C9.40370814,13.3929964 9.40719821,13.3576766 9.41061454,13.3223014 C9.42351795,13.1890621 9.43723244,13.0562942 9.45180715,12.9240252 C9.4549777,12.895165 9.45802536,12.8661939 9.46126965,12.8373892 C9.47938359,12.677369 9.49850521,12.5179587 9.51905236,12.3594078 C9.52067451,12.3468491 9.52249327,12.3344012 9.52411542,12.3218702 C9.54220477,12.1837515 9.5613264,12.0462706 9.58120995,11.9092886 C9.58836213,11.859913 9.59573551,11.8106483 9.60313346,11.7614113 C9.6183472,11.6602759 9.63412623,11.5595009 9.65034767,11.4589753 C9.65941692,11.4026134 9.66826498,11.3461129 9.67762917,11.289945 C9.69871703,11.1638584 9.72054223,11.0382431 9.74317851,10.9131268 C9.76075173,10.8157618 9.77925891,10.7190066 9.79774151,10.6222238 C9.80513947,10.5836881 9.81241454,10.5450692 9.81993538,10.5066167 C10.358659,7.74751566 11.2697383,5.23532039 12.4659462,3 L2,3 L2,21 L13,21 C12.7734898,19.9964083 12.6491501,18.9413339 12.6142985,17.8662155 Z M7.5,5 C7.77614237,5 8,5.22385763 8,5.5 L8,7.5 C8,7.77614237 7.77614237,8 7.5,8 C7.22385763,8 7,7.77614237 7,7.5 L7,5.5 C7,5.22385763 7.22385763,5 7.5,5 Z" fill="currentColor" fill-rule="nonzero"/>
    </symbol>
     <symbol id="shopping-cart" viewBox="0 0 18 18"> 
        <path d="M16.5999343,3.60335143 L4.10208,3.60335143 L3.88541143,1.81597714 C3.85005429,1.52435143 3.58086857,1.28571429 3.28698,1.28571429 L3.16827429,1.28571429 C3.11811429,1.28571429 3.0705,1.29278571 3.02590286,1.30579714 L1.49819143,1.30579714 C1.14565714,1.30579714 0.857142857,1.57026857 0.857142857,1.89338571 C0.857142857,2.21650286 1.14565714,2.48097429 1.49828571,2.48097429 L2.77887429,2.48097429 L4.00176,12.5702057 C4.03711714,12.8619257 4.30639714,13.1005629 4.60019143,13.1005629 L4.71899143,13.1005629 C4.76858571,13.1005629 4.81582286,13.0935857 4.85994857,13.0808571 L14.9666229,13.0808571 C15.3191571,13.0808571 15.6075771,12.81648 15.6075771,12.4932686 C15.6075771,12.1700571 15.3191571,11.90568 14.9666229,11.90568 L5.10839143,11.90568 L4.95866571,10.6697829 L14.9982086,10.6697829 C15.2920029,10.6697829 15.5855143,10.4353886 15.6504771,10.1488543 L17.0160171,4.12437429 C17.08098,3.83793429 16.8937286,3.60344571 16.5999343,3.60344571 L16.5999343,3.60335143 Z M5.08576286,15.6708857 C5.08576286,16.4591143 5.72483143,17.0982771 6.51315429,17.0982771 C7.30147714,17.0982771 7.94045143,16.4592086 7.94045143,15.6707914 C7.94045143,14.8825629 7.30147714,14.2434943 6.51315429,14.2434943 C5.72483143,14.2434943 5.08566857,14.8825629 5.08566857,15.6708857 L5.08576286,15.6708857 Z M12.1615286,15.6708857 C12.1615286,16.4591143 12.8005971,17.0982771 13.5890143,17.0982771 C14.3774314,17.0982771 15.0163114,16.4592086 15.0163114,15.6707914 C15.0163114,14.8825629 14.3772429,14.2434943 13.58892,14.2434943 C12.8006914,14.2434943 12.1615286,14.8825629 12.1615286,15.6708857 L12.1615286,15.6708857 Z" fill="currentColor" fill-rule="nonzero"/>
    </symbol>
    <symbol id="android" viewBox="0 0 26 26"> 
        <path d="M4.31753472,8.91884854 C3.52760417,8.91884854 2.88888889,9.55756382 2.88888889,10.3452374 L2.88888889,16.3193694 C2.88888889,17.107043 3.52986111,17.7457583 4.31753472,17.7457583 C5.10746528,17.7457583 5.74618056,17.107043 5.74618056,16.3193694 L5.74618056,10.3452374 C5.74618056,9.55756382 5.10746528,8.91884854 4.31753472,8.91884854 L4.31753472,8.91884854 Z M6.29913194,18.445411 C6.29913194,19.2872513 6.98298611,19.9688485 7.82482639,19.9688485 L8.86527778,19.9688485 L8.86527778,23.1285708 C8.86527778,23.9162444 9.50625,24.5549596 10.2939236,24.5549596 C11.0838542,24.5549596 11.7225694,23.9162444 11.7225694,23.1285708 L11.7225694,19.9688485 L13.6522569,19.9688485 L13.6522569,23.1285708 C13.6522569,23.9162444 14.2932292,24.5549596 15.0809028,24.5549596 C15.8708333,24.5549596 16.5095486,23.9162444 16.5095486,23.1285708 L16.5095486,19.9688485 L17.55,19.9688485 C18.3918403,19.9688485 19.0756944,19.2872513 19.0756944,18.445411 L19.0756944,9.18742493 L6.29913194,9.18742493 L6.29913194,18.445411 Z M15.84375,3.55183465 L16.8413194,1.73725132 C16.8954861,1.64245965 16.859375,1.52058465 16.7623264,1.46867493 C16.6675347,1.4167652 16.5456597,1.45061937 16.49375,1.54766798 L15.4848958,3.38030687 C14.6385417,3.00565409 13.690625,2.79575826 12.6885417,2.79575826 C11.6864583,2.79575826 10.7385417,3.00565409 9.8921875,3.37804993 L8.88333333,1.54766798 C8.83142361,1.45061937 8.70954861,1.4167652 8.61475694,1.46867493 C8.51770833,1.52058465 8.48159722,1.64245965 8.53576389,1.73725132 L9.53333333,3.55183465 C7.57430556,4.56294576 6.24947917,6.48586243 6.24947917,8.69089715 L19.1253501,8.69089715 C19.1276042,6.48360548 17.8027778,4.56294576 15.84375,3.55183465 Z M9.75902778,6.36398743 C9.46111111,6.36398743 9.21961806,6.12249437 9.21961806,5.8245777 C9.21961806,5.52666104 9.46111111,5.28516798 9.75902778,5.28516798 C10.0569444,5.28516798 10.2984375,5.52666104 10.2984375,5.8245777 C10.2961806,6.12249437 10.0546875,6.36398743 9.75902778,6.36398743 Z M15.6203125,6.36398743 C15.3223958,6.36398743 15.0809028,6.12249437 15.0809028,5.8245777 C15.0809028,5.52666104 15.3223958,5.28516798 15.6203125,5.28516798 C15.9182292,5.28516798 16.1597222,5.52666104 16.1597222,5.8245777 C16.1574653,6.12249437 15.9159722,6.36398743 15.6203125,6.36398743 Z M21.0595486,8.91884854 C20.2696181,8.91884854 19.6309028,9.55756382 19.6309028,10.3452374 L19.6309028,16.3193694 C19.6309028,17.107043 20.271875,17.7457583 21.0595486,17.7457583 C21.8494792,17.7457583 22.4881944,17.107043 22.4881944,16.3193694 L22.4881944,10.3452374 C22.4881944,9.55756382 21.8494792,8.91884854 21.0595486,8.91884854 Z" fill="currentColor" fill-rule="nonzero"/>
    </symbol>
    <symbol id="ios" viewBox="0 0 26 26"> 
        <path d="M21.4149181,17.4411429 C21.3862223,17.528218 20.9378956,19.0920424 19.8363084,20.7000816 C18.8828842,22.0871882 17.8970115,23.4855248 16.3399307,23.5100729 C14.8086959,23.5369911 14.318694,22.5964335 12.5704205,22.5964335 C10.8243761,22.5964335 10.2754589,23.4855248 8.82833649,23.5369911 C7.33234373,23.5982202 6.18118067,22.0217831 5.22414485,20.6414484 C3.26822862,17.8137938 1.7622191,12.6285658 3.78201672,9.15360422 C4.77579,7.41495243 6.56201423,6.30978174 8.50715192,6.27959046 C9.97298161,6.25188218 11.3676219,7.27257369 12.2579265,7.27257369 C13.1725817,7.27257369 14.8596826,6.03752399 16.6395299,6.22231166 C17.384747,6.25405483 19.4691879,6.53384633 20.8121926,8.48033837 C20.7065231,8.55223315 18.3181095,9.96171518 18.3447173,12.8303679 C18.3806083,16.2935069 21.3826106,17.4293203 21.4149181,17.4411429 M15.4748231,4.36723996 C16.2774319,3.38819553 16.8048484,2.04239738 16.6660813,0.705882353 C15.5201101,0.750830708 14.1238896,1.46692872 13.2940805,2.44016062 C12.5603756,3.28926962 11.9136893,4.65603237 12.094047,5.97702852 C13.3673296,6.05436902 14.6765314,5.31025235 15.4748231,4.36723996" fill="currentColor" fill-rule="nonzero"/>
    </symbol>
    <symbol id="close" viewBox="0 0 28 28"> 
        <path d="M21.3357583,13.3257881 L14.7216753,13.3278732 L14.7216753,6.66880127 C14.7216753,6.2996178 14.4228815,6 14.0547134,6 C13.6865454,6 13.3877875,6.2996178 13.3877875,6.66880127 L13.3877875,13.3231996 L6.66897964,13.3194966 C6.66829844,13.3194966 6.66765311,13.3194966 6.66697191,13.3194966 C6.29948501,13.3194966 6.00137246,13.6171011 6,13.9862846 C5.99800235,14.3554681 6.29615075,14.655733 6.66428298,14.6570632 L13.3877516,14.6607662 L13.3877516,21.3311987 C13.3877516,21.7010293 13.6865454,22 14.0546776,22 C14.4228098,22 14.7216394,21.7010653 14.7216394,21.3311987 L14.7216394,14.6654398 L21.3303804,14.6633546 C21.331707,14.6633546 21.3323882,14.6633546 21.3330335,14.6633546 C21.7005204,14.6633546 21.998633,14.3657501 22,13.9965666 C22.0013577,13.6273832 21.7032452,13.3271182 21.3357583,13.3257881 Z" fill="currentColor" fill-rule="nonzero"/>
    </symbol>
    <symbol id="svg-success">
            <path d="M416.832 798.08C400.64 798.08 384.512 791.872 372.16 779.52L119.424 525.76C94.784 500.992 94.784 460.8 119.424 436.032 144.128 411.264 184.128 411.264 208.768 436.032L416.832 644.928 814.4 245.76C839.04 220.928 879.04 220.928 903.744 245.76 928.384 270.528 928.384 310.656 903.744 335.424L461.504 779.52C449.152 791.872 432.96 798.08 416.832 798.08Z"></path>
        </symbol>
        <symbol id="svg-wrong">
            <path d="M265.28 310.72a32 32 0 0 1 45.44-45.44l448 448a32 32 0 0 1-45.44 45.44z"></path>
            <path d="M713.28 265.28a32 32 0 0 1 45.44 45.44l-448 448a32 32 0 0 1-45.44-45.44z"></path>
        </symbol>
    <symbol id="google-play" viewBox="0 0 200 48"> 
        <path d="M164.841451,39.3605655 L168.013602,39.3605655 L168.013602,18.1070592 L164.841451,18.1070592 L164.841451,39.3605655 Z M193.41364,25.7636256 L189.777376,34.9775159 L189.668616,34.9775159 L185.894649,25.7636256 L182.477691,25.7636256 L188.138705,38.6414475 L184.910452,45.8052141 L188.21865,45.8052141 L196.941398,25.7642631 L193.41364,25.7636256 Z M175.42294,36.9464202 C174.385944,36.9464202 172.935863,36.4263857 172.935863,35.141485 C172.935863,33.5011565 174.741308,32.8723108 176.298504,32.8723108 C177.692497,32.8723108 178.350413,33.1725298 179.197034,33.5829116 C178.950533,35.5518158 177.255671,36.9463182 175.423068,36.9463182 L175.42294,36.9464202 Z M175.807145,25.2987362 C173.510431,25.2987362 171.132114,26.3107545 170.147789,28.5527578 L172.963059,29.7281332 C173.564849,28.5527578 174.685117,28.1702993 175.861589,28.1702993 C177.502045,28.1702993 179.169787,29.1537441 179.196945,30.9042226 L179.196945,31.1226738 C178.622339,30.7945699 177.3915,30.3025988 175.888747,30.3025988 C172.852514,30.3025988 169.763622,31.969958 169.763622,35.0870284 C169.763622,37.9306045 172.252484,39.7626978 175.040469,39.7626978 C177.172322,39.7626978 178.350324,38.8057354 179.0864,37.6842684 L179.196945,37.6842684 L179.196945,39.3257444 L182.260337,39.3257444 L182.260337,31.1770157 C182.260337,27.4038138 179.441751,25.2987362 175.807145,25.2987362 L175.807145,25.2987362 Z M156.202255,28.3507928 L151.690428,28.3507928 L151.690428,21.0661532 L156.202255,21.0661532 C158.573815,21.0661532 159.920121,23.0291922 159.920121,24.7084092 C159.920121,26.3553679 158.573687,28.3507928 156.202255,28.3507928 Z M156.120653,18.1075692 L148.519678,18.1075692 L148.519678,39.3610755 L151.690555,39.3610755 L151.690555,31.3093767 L156.120781,31.3093767 C159.636426,31.3093767 163.092528,28.7646681 163.092528,24.7091742 C163.092528,20.6544454 159.636426,18.1084617 156.120781,18.1084617 L156.120653,18.1075692 Z M114.673192,36.9499902 C112.481667,36.9499902 110.647534,35.1144544 110.647534,32.5957564 C110.647534,30.0477327 112.481667,28.1863137 114.673192,28.1863137 C116.836794,28.1863137 118.534754,30.0478602 118.534754,32.5957564 C118.534754,35.1144544 116.836794,36.9499902 114.673192,36.9499902 Z M118.315576,26.9533578 L118.205923,26.9533578 C117.494124,26.1045436 116.124051,25.3376374 114.39957,25.3376374 C110.783707,25.3376374 107.470027,28.5151444 107.470027,32.5957564 C107.470027,36.6485727 110.783707,39.7981565 114.39957,39.7981565 C116.124051,39.7981565 117.494073,39.0310973 118.205923,38.1552779 L118.315576,38.1552779 L118.315576,39.1951684 C118.315576,41.9623701 116.836794,43.4405145 114.454014,43.4405145 C112.510228,43.4405145 111.305068,42.0439721 110.811631,40.8664802 L108.045959,42.0166354 C108.839513,43.9330083 110.947804,46.2892672 114.454142,46.2892672 C118.17953,46.2892672 121.329113,44.0977424 121.329113,38.7567614 L121.329113,25.7756619 L118.315703,25.7756619 L118.315576,26.9533578 Z M123.520511,39.359928 L126.696105,39.359928 L126.696105,18.1064217 L123.520511,18.1064217 L123.520511,39.359928 Z M131.379807,32.3487827 C131.298078,29.5550604 133.544556,28.1312323 135.159639,28.1312323 C136.420021,28.1312323 137.487082,28.7614168 137.844474,29.6645856 L131.379807,32.3487827 Z M141.239119,29.9382075 C140.636819,28.3232521 138.802023,25.3376374 135.049986,25.3376374 C131.324598,25.3376374 128.230096,28.2680432 128.230096,32.5679607 C128.230096,36.6214145 131.298078,39.798284 135.405338,39.798284 C138.719018,39.798284 140.636921,37.7722583 141.431649,36.5941289 L138.966629,34.9506128 C138.14468,36.1559131 137.022333,36.9501178 135.405338,36.9501178 C133.790383,36.9501178 132.639539,36.2104463 131.901168,34.758848 L141.567822,30.7604755 L141.239119,29.9382075 Z M64.2157181,27.5561929 L64.2157181,30.6235371 L71.5554391,30.6235371 C71.3363122,32.3489102 70.7611963,33.6085142 69.8846374,34.4850986 C68.8161862,35.5528741 67.1454864,36.7309398 64.2155906,36.7309398 C59.6964952,36.7309398 56.1637643,33.0885562 56.1637643,28.5695882 C56.1637643,24.0506203 59.6964952,20.4077267 64.2155906,20.4077267 C66.6531966,20.4077267 68.4330136,21.3665252 69.7476989,22.5989965 L71.911938,20.4348849 C70.0764022,18.6823536 67.6393062,17.3403825 64.2155906,17.3403825 C58.0250559,17.3403825 52.8215233,22.3798185 52.8215233,28.5695882 C52.8215233,34.7587205 58.0250559,39.798284 64.2155906,39.798284 C67.5564292,39.798284 70.0765297,38.7026236 72.0481115,36.6487002 C74.0749021,34.6219095 74.7050229,31.7737433 74.7050229,29.4728208 C74.7050229,28.7615443 74.6497757,28.1042016 74.5402888,27.5561929 L64.2157181,27.5561929 Z M83.050489,36.9499902 C80.8589642,36.9499902 78.969112,35.1423776 78.969112,32.5679607 C78.969112,29.9661307 80.8589642,28.1864412 83.050489,28.1864412 C85.2411213,28.1864412 87.1309735,29.9661307 87.1309735,32.5679607 C87.1309735,35.1423776 85.2411213,36.9499902 83.050489,36.9499902 Z M83.050489,25.3376374 C79.050714,25.3376374 75.7921151,28.3775684 75.7921151,32.5679607 C75.7921151,36.7309398 79.050714,39.798284 83.050489,39.798284 C87.048734,39.798284 90.3079704,36.7309398 90.3079704,32.5679607 C90.3079704,28.3775684 87.048734,25.3376374 83.050489,25.3376374 L83.050489,25.3376374 Z M98.8825598,36.9499902 C96.6925651,36.9499902 94.8020753,35.1423776 94.8020753,32.5679607 C94.8020753,29.9661307 96.6926926,28.1864412 98.8825598,28.1864412 C101.074085,28.1864412 102.963299,29.9661307 102.963299,32.5679607 C102.963299,35.1423776 101.074085,36.9499902 98.8825598,36.9499902 Z M98.8825598,25.3376374 C94.8843149,25.3376374 91.6257159,28.3775684 91.6257159,32.5679607 C91.6257159,36.7309398 94.8843149,39.798284 98.8825598,39.798284 C102.882335,39.798284 106.140934,36.7309398 106.140934,32.5679607 C106.140934,28.3775684 102.882335,25.3376374 98.8825598,25.3376374" fill="#FFFFFF"/>
                                        <g transform="translate(0.000000, 0.499519)">
                                            <path d="M18.2663362,20.8818218 L0.168533713,40.091452 C0.16921458,40.0954046 0.170573764,40.0987197 0.17121128,40.1027998 C0.726258156,42.188752 2.63151279,43.7246554 4.89265432,43.7246554 C5.79654991,43.7246554 6.64518563,43.4802828 7.37297382,43.0512855 L7.43077102,43.0174207 L27.8032303,31.2616268 L18.2672669,20.8815923" fill="#EB3131"/>
                                            <path d="M36.5770689,17.611365 L36.5597285,17.5995072 L27.7643036,12.5006548 L17.8551384,21.3182652 L27.7987295,31.2605813 L36.5477432,26.2124751 C38.0816065,25.3844056 39.1229251,23.7673464 39.1229251,21.9026123 C39.1229251,20.051266 38.0956191,18.4423033 36.5769414,17.6114925" fill="#F6B60B"/>
                                            <path d="M0.16598365,3.63191555 C0.0571851796,4.03311708 0,4.45335483 0,4.88974724 L0,38.8349209 C0,39.2704973 0.0565094127,39.6921631 0.166672167,40.0919365 L18.8892402,21.3731936 L0.166672167,3.63240006" fill="#5778C5"/>
                                            <path d="M18.4002145,21.8623213 L27.7682562,12.4970847 L7.41874747,0.698704718 C6.67907598,0.255682142 5.81577739,0 4.8920168,0 C2.63087527,0 0.723045076,1.53870847 0.167896197,3.62708318 C0.16721533,3.62912323 0.16721533,3.63052576 0.16721533,3.63231081 L18.4001712,21.8627166" fill="#3BAD49"/>
                                        </g>
                                        <path d="M63.620495,4.98825621 L58.6612585,4.98825621 L58.6612585,6.21548714 L62.3774664,6.21548714 C62.2764839,7.21696092 61.878011,8.00320933 61.2059926,8.57429611 C60.5339871,9.14549764 59.6759544,9.43229056 58.661284,9.43229056 C57.548296,9.43229056 56.6052951,9.04451511 55.8324983,8.27425561 C55.0753206,7.4880072 54.6902738,6.51573164 54.6902738,5.34435986 C54.6902738,4.17306458 55.0753206,3.20077627 55.8324983,2.41459161 C56.6053206,1.64431936 57.5483087,1.25910673 58.661284,1.25910673 C59.2324856,1.25910673 59.7769879,1.35737343 60.2762394,1.57258606 C60.7756949,1.78763294 61.1767307,2.08785195 61.49021,2.47307733 L62.4331981,1.53008925 C62.0054759,1.0438941 61.4636893,0.672094802 60.791467,0.401125028 C60.1194615,0.130142504 59.4182577,8.92522313e-05 58.6611438,8.92522313e-05 C57.1763692,8.92522313e-05 55.9174027,0.515355134 54.8893445,1.54338783 C53.86135,2.57393235 53.3460459,3.84367284 53.3460459,5.34438536 C53.3460459,6.84509788 53.8613118,8.11757969 54.8893445,9.14563789 C55.9173389,10.1734538 57.1763692,10.6889365 58.6611438,10.6889365 C60.2203803,10.6889365 61.4635363,10.189481 62.4198102,9.17470862 C63.2618158,8.330153 63.6920881,7.18795395 63.6920881,5.75889822 C63.6920881,5.51715218 63.6628516,5.25944274 63.620342,4.98846021 L63.620495,4.98825621 Z M65.541713,0.228268957 L65.541713,10.4603105 L71.5154924,10.4603105 L71.5154924,9.2038431 L66.8565259,9.2038431 L66.8565259,5.95799445 L71.058776,5.95799445 L71.058776,4.73076352 L66.8565259,4.73076352 L66.8565259,1.48746494 L71.5154924,1.48746494 L71.5154924,0.228268957 L65.541713,0.228268957 Z M79.8921968,1.48750319 L79.8921968,0.228307208 L72.8610335,0.228307208 L72.8610335,1.48750319 L75.7192725,1.48750319 L75.7192725,10.460285 L77.0340854,10.460285 L77.0340854,1.48750319 L79.8921968,1.48750319 Z M86.2577934,0.228307208 L84.9429806,0.228307208 L84.9429806,10.4603105 L86.2577934,10.4603105 L86.2577934,0.228307208 Z M94.9364254,1.48750319 L94.9364254,0.228307208 L87.9053896,0.228307208 L87.9053896,1.48750319 L90.7633736,1.48750319 L90.7633736,10.460285 L92.0781865,10.460285 L92.0781865,1.48750319 L94.9364254,1.48750319 Z M108.204407,1.55923648 C107.189673,0.515278632 105.946581,0 104.461679,0 C102.974226,0 101.731198,0.515265882 100.7164,1.54329858 C99.7016658,2.5580327 99.2024271,3.83032326 99.2024271,5.34429611 C99.2024271,6.85826896 99.7017168,8.13075077 100.7164,9.14554864 C101.731134,10.1733646 102.974226,10.6888472 104.461679,10.6888472 C105.933193,10.6888472 107.189609,10.1734028 108.204407,9.14554864 C109.219141,8.13081452 109.71838,6.85839646 109.71838,5.34429611 C109.71838,3.84358359 109.21909,2.57377934 108.204407,1.55923648 L108.204407,1.55923648 Z M101.659413,2.41450236 C102.416425,1.64423011 103.346153,1.25901748 104.461679,1.25901748 C105.574667,1.25901748 106.504407,1.64424286 107.248133,2.41450236 C108.005145,3.17151429 108.376932,4.15951099 108.376932,5.34427061 C108.376932,6.53172054 108.005145,7.51705243 107.248133,8.27416635 C106.504382,9.04443861 105.574654,9.43220131 104.461679,9.43220131 C103.34614,9.43220131 102.4164,9.04442586 101.659413,8.27416635 C100.918212,7.50117828 100.546425,6.53170779 100.546425,5.34427061 C100.546425,4.15953649 100.918212,3.18742669 101.659413,2.41450236 L101.659413,2.41450236 Z M112.842208,4.0879817 L112.786489,2.11423236 L112.842208,2.11423236 L118.043191,10.4602085 L119.4164,10.4602085 L119.4164,0.228205205 L118.101587,0.228205205 L118.101587,6.21537238 L118.157306,8.18912173 L118.101587,8.18912173 L113.12909,0.228205205 L111.527395,0.228205205 L111.527395,10.4602085 L112.842208,10.4602085 L112.842208,4.0879817 Z" id="path33" stroke="#FFFFFF" stroke-width="0.26666" fill="#FFFFFF"/>
    </symbol>
</svg>