<?xml version="1.0" encoding="UTF-8"?>
<svg width="20px" height="20px" viewBox="0 0 20 20" version="1.1" xmlns="http://www.w3.org/2000/svg" xmlns:xlink="http://www.w3.org/1999/xlink">
    <title>close-icon</title>
    <g id="页面-1" stroke="none" stroke-width="1" fill="none" fill-rule="evenodd">
        <g id="iDg主网页设计" transform="translate(-988.000000, -6519.000000)">
            <g id="编组-63" transform="translate(0.000000, 6410.000000)">
                <g id="编组-33" transform="translate(320.000000, 103.991649)">
                    <g id="加号-(5)" transform="translate(662.991660, 0.000000)">
                        <rect id="矩形" fill-opacity="0" fill="#D8D8D8" x="5.00834029" y="5.00835105" width="20" height="20"></rect>
                        <path d="M16.3394715,16.3388796 L16.3394715,24.481331 C16.3394715,25.1773601 15.7749769,25.7412951 15.0789262,25.7412951 C14.382897,25.7412951 13.8184025,25.1773601 13.8184025,24.481331 L13.8184025,16.3388796 L5.67704883,16.3388796 C4.9804385,16.3388796 4.41650355,15.7749446 4.41650355,15.0788939 C4.41650355,14.3831231 4.98050307,13.8189298 5.67704883,13.8189298 L13.8183594,13.8189298 L13.8183594,5.67647844 C13.8183594,4.98070755 14.382854,4.41651432 15.0788832,4.41651432 C15.7749339,4.41651432 16.3394285,4.98072908 16.3394285,5.67647844 L16.3394285,13.8189513 L24.480739,13.8189513 C25.1773494,13.8189513 25.7413058,14.3831231 25.7413058,15.0788724 C25.7413058,15.7749016 25.1773709,16.338815 24.480739,16.338815 L16.3394715,16.3388796 Z" id="路径" fill="#333333" fill-rule="nonzero" transform="translate(15.078905, 15.078905) rotate(45.000000) translate(-15.078905, -15.078905) "></path>
                    </g>
                </g>
            </g>
        </g>
    </g>
</svg>