<svg width="40" height="40" viewBox="0 0 40 40" fill="none" xmlns="http://www.w3.org/2000/svg">
<g id="&#231;&#188;&#150;&#231;&#187;&#132; 31">
<g id="&#232;&#189;&#172;&#230;&#141;&#162; (15)">
<rect id="&#231;&#159;&#169;&#229;&#189;&#162;" width="40" height="40" fill="#D8D8D8" fill-opacity="0.01"/>
<rect id="&#231;&#159;&#169;&#229;&#189;&#162;_2" x="3.3" y="3.3" width="33.4" height="33.4" rx="5.7" stroke="#CADEF9" stroke-width="2.6"/>
<path id="Union" d="M28.9287 22.6376C29.7363 22.6377 30.3896 23.2919 30.3896 24.0995C30.3894 24.9068 29.7361 25.5603 28.9287 25.5604H15.3037L17.7998 27.5165C18.437 28.0157 18.547 28.9332 18.0479 29.5663C17.5486 30.2033 16.6311 30.3125 15.998 29.8134L10.1699 25.2479C10.1688 25.2471 10.1681 25.2458 10.167 25.245C9.91601 25.0467 9.73184 24.7688 9.65332 24.4481C9.64962 24.4331 9.64482 24.4183 9.6416 24.4032C9.63793 24.3858 9.63586 24.3681 9.63281 24.3505C9.62026 24.2788 9.61211 24.2064 9.61035 24.1337V24.0995C9.61035 24.0918 9.61121 24.0837 9.61133 24.076C9.61194 24.0363 9.61332 23.9966 9.61719 23.9569C9.61839 23.9445 9.62056 23.9322 9.62207 23.9198C9.62574 23.8901 9.62925 23.8604 9.63477 23.8309C9.6397 23.8043 9.64598 23.778 9.65234 23.7518C9.65684 23.7335 9.66177 23.7153 9.66699 23.6971C9.74544 23.422 9.90249 23.1808 10.1123 22.9979C10.1187 22.9923 10.1244 22.9858 10.1309 22.9803C10.1557 22.9594 10.1818 22.94 10.208 22.9208C10.221 22.9112 10.2338 22.9015 10.2471 22.8925C10.2601 22.8835 10.2738 22.8756 10.2871 22.8671C10.3546 22.824 10.4244 22.7858 10.4971 22.7548C10.5082 22.75 10.5199 22.7466 10.5312 22.7421C10.6082 22.7115 10.687 22.6868 10.7676 22.6698C10.786 22.6659 10.8046 22.6632 10.8232 22.66C10.8515 22.6552 10.8797 22.6505 10.9082 22.6473C10.9331 22.6446 10.9582 22.643 10.9834 22.6415C11.0045 22.6402 11.0257 22.6389 11.0469 22.6385C11.055 22.6384 11.0631 22.6376 11.0713 22.6376H28.9287ZM21.9316 10.4628C22.4308 9.82562 23.3483 9.71561 23.9814 10.2147L29.7334 14.7216C30.0704 14.9441 30.3077 15.3029 30.3711 15.7196C30.3745 15.7414 30.3775 15.7631 30.3799 15.785C30.3812 15.797 30.3818 15.8091 30.3828 15.8212C30.3859 15.8576 30.3883 15.894 30.3887 15.9305C30.3887 15.9341 30.3896 15.9377 30.3896 15.9413C30.3896 15.9526 30.388 15.9642 30.3877 15.9755C30.387 16.01 30.385 16.0445 30.3818 16.079C30.3807 16.0914 30.3794 16.1038 30.3779 16.1161C30.3738 16.1511 30.369 16.1859 30.3623 16.2206C30.3595 16.235 30.3558 16.2492 30.3525 16.2635C30.3451 16.2969 30.337 16.3302 30.3271 16.3632C30.3237 16.3747 30.3192 16.3859 30.3154 16.3973C30.2762 16.5171 30.2213 16.6327 30.1494 16.7421C30.1377 16.7599 30.1257 16.7775 30.1133 16.7948C30.101 16.8118 30.0902 16.83 30.0771 16.8466C30.0722 16.8529 30.0656 16.8579 30.0605 16.8641C30.0544 16.8717 30.0483 16.8792 30.042 16.8866C29.7908 17.1848 29.443 17.3574 29.0791 17.3944C29.0768 17.3946 29.0746 17.3952 29.0723 17.3954C29.0246 17.4 28.9767 17.4023 28.9287 17.4022H11.0713C10.2637 17.4022 9.61035 16.7489 9.61035 15.9413C9.61049 15.1338 10.2638 14.4804 11.0713 14.4803H24.6934L22.1797 12.5126C21.5426 12.0134 21.4326 11.0959 21.9316 10.4628Z" fill="#CADEF9"/>
</g>
</g>
</svg>
