<svg width="40" height="40" viewBox="0 0 40 40" fill="none" xmlns="http://www.w3.org/2000/svg">
<g id="&#231;&#188;&#150;&#231;&#187;&#132; 3">
<g id="&#231;&#188;&#150;&#231;&#187;&#132; 30">
<circle id="&#230;&#164;&#173;&#229;&#156;&#134;&#229;&#189;&#162;" cx="20" cy="20" r="18.7" stroke="#CADEF9" stroke-width="2.6"/>
<g id="&#231;&#188;&#150;&#231;&#187;&#132; 10">
<path id="&#232;&#183;&#175;&#229;&#190;&#132;" fill-rule="evenodd" clip-rule="evenodd" d="M13.3469 17.9489C13.6538 17.6421 14.114 17.4887 14.4208 17.4887C14.7276 17.4887 15.1879 17.6421 15.4947 17.9489L18.4094 20.8637V9.51139C18.4094 8.59093 19.0231 7.97729 19.9435 7.97729C20.864 7.97729 21.4776 8.59093 21.4776 9.51139V21.0171L24.3924 18.1023C24.6992 17.7955 25.1594 17.6421 25.4663 17.6421C25.7731 17.6421 26.2333 17.7955 26.5401 18.1023C27.1538 18.7159 27.1538 19.6364 26.5401 20.25L21.0174 25.7727C20.864 25.9262 20.7106 26.0796 20.5572 26.0796C20.2504 26.233 19.7901 26.233 19.3299 26.0796C19.1765 25.9262 19.0231 25.9262 18.8697 25.7727L13.3469 20.25C12.7333 19.6364 12.7333 18.5625 13.3469 17.9489Z" fill="#CADEF9"/>
<path id="&#232;&#183;&#175;&#229;&#190;&#132;_2" fill-rule="evenodd" clip-rule="evenodd" d="M32.6761 28.0738C30.0682 30.6817 25.0057 31.909 19.9432 31.909C14.8807 31.909 9.81818 30.6817 7.21023 28.0738C6.59659 27.4601 6.59659 26.5397 7.21023 25.926C7.82386 25.3124 8.74432 25.3124 9.35795 25.926C13.3466 29.9147 26.5398 29.9147 30.5284 25.926C31.142 25.3124 32.0625 25.3124 32.6761 25.926C33.2898 26.5397 33.2898 27.4601 32.6761 28.0738Z" fill="#CADEF9"/>
</g>
</g>
</g>
</svg>
