<svg width="40" height="40" viewBox="0 0 40 40" fill="none" xmlns="http://www.w3.org/2000/svg">
<g id="&#231;&#188;&#150;&#231;&#187;&#132; 3">
<g id="&#231;&#188;&#150;&#231;&#187;&#132; 30">
<circle id="&#230;&#164;&#173;&#229;&#156;&#134;&#229;&#189;&#162;" cx="20" cy="20" r="18.7" stroke="white" stroke-width="2.6"/>
<g id="&#231;&#188;&#150;&#231;&#187;&#132; 10">
<path id="&#232;&#183;&#175;&#229;&#190;&#132;" fill-rule="evenodd" clip-rule="evenodd" d="M13.3465 17.9489C13.6533 17.6421 14.1135 17.4887 14.4203 17.4887C14.7271 17.4887 15.1874 17.6421 15.4942 17.9489L18.409 20.8637V9.51139C18.409 8.59093 19.0226 7.97729 19.943 7.97729C20.8635 7.97729 21.4771 8.59093 21.4771 9.51139V21.0171L24.3919 18.1023C24.6987 17.7955 25.159 17.6421 25.4658 17.6421C25.7726 17.6421 26.2328 17.7955 26.5396 18.1023C27.1533 18.7159 27.1533 19.6364 26.5396 20.25L21.0169 25.7727C20.8635 25.9262 20.7101 26.0796 20.5567 26.0796C20.2499 26.233 19.7896 26.233 19.3294 26.0796C19.176 25.9262 19.0226 25.9262 18.8692 25.7727L13.3465 20.25C12.7328 19.6364 12.7328 18.5625 13.3465 17.9489Z" fill="white"/>
<path id="&#232;&#183;&#175;&#229;&#190;&#132;_2" fill-rule="evenodd" clip-rule="evenodd" d="M32.6761 28.0739C30.0682 30.6819 25.0057 31.9091 19.9432 31.9091C14.8807 31.9091 9.81818 30.6819 7.21023 28.0739C6.59659 27.4603 6.59659 26.5398 7.21023 25.9262C7.82386 25.3125 8.74432 25.3125 9.35795 25.9262C13.3466 29.9148 26.5398 29.9148 30.5284 25.9262C31.142 25.3125 32.0625 25.3125 32.6761 25.9262C33.2898 26.5398 33.2898 27.4603 32.6761 28.0739Z" fill="white"/>
</g>
</g>
</g>
</svg>
