<?xml version="1.0" encoding="UTF-8"?>
<svg width="20px" height="20px" viewBox="0 0 20 20" version="1.1" xmlns="http://www.w3.org/2000/svg" xmlns:xlink="http://www.w3.org/1999/xlink">
    <title>expand-icon</title>
    <g id="页面-1" stroke="none" stroke-width="1" fill="none" fill-rule="evenodd">
        <g id="iDg主网页设计" transform="translate(-988.000000, -6578.000000)">
            <g id="编组-63" transform="translate(0.000000, 6410.000000)">
                <g id="编组-33" transform="translate(320.000000, 103.991649)">
                    <g id="加号-(5)" transform="translate(668.000000, 64.008351)">
                        <rect id="矩形" fill-opacity="0" fill="#D8D8D8" x="0" y="0" width="20" height="20"></rect>
                        <path d="M11.3311312,11.3305285 L11.3311312,18.4729799 C11.3311312,19.1690091 10.7666366,19.732944 10.0705859,19.732944 C9.37455676,19.732944 8.81006218,19.1690091 8.81006218,18.4729799 L8.81006218,11.3305285 L1.66870855,11.3305285 C0.972098214,11.3305285 0.408163265,10.7665936 0.408163265,10.0705429 C0.408163265,9.374772 0.972162787,8.81057876 1.66870855,8.81057876 L8.81001913,8.81057876 L8.81001913,1.66812739 C8.81001913,0.972356505 9.37451371,0.408163265 10.0705429,0.408163265 C10.7665936,0.408163265 11.3310882,0.972378029 11.3310882,1.66812739 L11.3310882,8.81060029 L18.4723988,8.81060029 C19.1690091,8.81060029 19.7329656,9.374772 19.7329656,10.0705214 C19.7329656,10.7665505 19.1690306,11.330464 18.4723988,11.330464 L11.3311312,11.3305285 Z" id="路径" fill="#333333" fill-rule="nonzero"></path>
                    </g>
                </g>
            </g>
        </g>
    </g>
</svg>