<?xml version="1.0" encoding="UTF-8"?>
<svg width="168px" height="24px" viewBox="0 0 168 24" version="1.1" xmlns="http://www.w3.org/2000/svg" xmlns:xlink="http://www.w3.org/1999/xlink">
    <title>five-star</title>
    <g id="页面-1" stroke="none" stroke-width="1" fill="none" fill-rule="evenodd">
        <g id="iDg-u-n设计" transform="translate(-434.000000, -5106.000000)">
            <g id="编组-62" transform="translate(0.000000, 4533.000000)">
                <g id="编组-29" transform="translate(320.000000, 256.000000)">
                    <g id="编组-75" transform="translate(114.000000, 317.000000)">
                        <g id="编组-74" transform="translate(0.000000, 0.000000)">
                            <g id="五角星-(1)">
                                <rect id="矩形" fill-opacity="0" fill="#D8D8D8" x="0" y="0" width="24" height="24"></rect>
                                <path d="M13.0807014,1.28957711 L15.6637184,6.59911222 C15.8072194,7.02961506 16.2377222,7.31661695 16.6682251,7.31661695 L22.2647621,8.17762263 C23.4127697,8.32112358 23.8432725,9.75613307 22.9822668,10.6171388 L18.9642403,14.7786663 C18.6772384,15.0656682 18.5337374,15.496171 18.5337374,16.0701748 L19.5382441,21.9537137 C19.681745,23.1017213 18.5337374,23.962727 17.6727317,23.3887232 L12.6501985,20.6622051 C12.2196957,20.5187042 11.7891929,20.5187042 11.35869,20.6622051 L6.3361568,23.3887232 C5.33165018,23.962727 4.18364258,23.1017213 4.47064449,21.9537137 L5.47515112,16.0701748 C5.61865207,15.639672 5.47515112,15.2091691 5.04464828,14.7786663 L0.883120774,10.4736378 C0.0221150917,9.75613307 0.452617933,8.32112358 1.60062551,8.17762263 L7.19716251,7.31661695 C7.62766535,7.31661695 8.05816819,7.02961506 8.20166914,6.59911222 L10.7846862,1.28957711 C11.215189,0.141569535 12.6501985,0.141569535 13.0807014,1.28957711 Z" id="路径" fill="#F88A2C" fill-rule="nonzero"></path>
                            </g>
                            <g id="五角星-(1)" transform="translate(36.000000, 0.000000)">
                                <rect id="矩形" fill-opacity="0" fill="#D8D8D8" x="0" y="0" width="24" height="24"></rect>
                                <path d="M13.0807014,1.28957711 L15.6637184,6.59911222 C15.8072194,7.02961506 16.2377222,7.31661695 16.6682251,7.31661695 L22.2647621,8.17762263 C23.4127697,8.32112358 23.8432725,9.75613307 22.9822668,10.6171388 L18.9642403,14.7786663 C18.6772384,15.0656682 18.5337374,15.496171 18.5337374,16.0701748 L19.5382441,21.9537137 C19.681745,23.1017213 18.5337374,23.962727 17.6727317,23.3887232 L12.6501985,20.6622051 C12.2196957,20.5187042 11.7891929,20.5187042 11.35869,20.6622051 L6.3361568,23.3887232 C5.33165018,23.962727 4.18364258,23.1017213 4.47064449,21.9537137 L5.47515112,16.0701748 C5.61865207,15.639672 5.47515112,15.2091691 5.04464828,14.7786663 L0.883120774,10.4736378 C0.0221150917,9.75613307 0.452617933,8.32112358 1.60062551,8.17762263 L7.19716251,7.31661695 C7.62766535,7.31661695 8.05816819,7.02961506 8.20166914,6.59911222 L10.7846862,1.28957711 C11.215189,0.141569535 12.6501985,0.141569535 13.0807014,1.28957711 Z" id="路径" fill="#F88A2C" fill-rule="nonzero"></path>
                            </g>
                            <g id="五角星-(1)" transform="translate(72.000000, 0.000000)">
                                <rect id="矩形" fill-opacity="0" fill="#D8D8D8" x="0" y="0" width="24" height="24"></rect>
                                <path d="M13.0807014,1.28957711 L15.6637184,6.59911222 C15.8072194,7.02961506 16.2377222,7.31661695 16.6682251,7.31661695 L22.2647621,8.17762263 C23.4127697,8.32112358 23.8432725,9.75613307 22.9822668,10.6171388 L18.9642403,14.7786663 C18.6772384,15.0656682 18.5337374,15.496171 18.5337374,16.0701748 L19.5382441,21.9537137 C19.681745,23.1017213 18.5337374,23.962727 17.6727317,23.3887232 L12.6501985,20.6622051 C12.2196957,20.5187042 11.7891929,20.5187042 11.35869,20.6622051 L6.3361568,23.3887232 C5.33165018,23.962727 4.18364258,23.1017213 4.47064449,21.9537137 L5.47515112,16.0701748 C5.61865207,15.639672 5.47515112,15.2091691 5.04464828,14.7786663 L0.883120774,10.4736378 C0.0221150917,9.75613307 0.452617933,8.32112358 1.60062551,8.17762263 L7.19716251,7.31661695 C7.62766535,7.31661695 8.05816819,7.02961506 8.20166914,6.59911222 L10.7846862,1.28957711 C11.215189,0.141569535 12.6501985,0.141569535 13.0807014,1.28957711 Z" id="路径" fill="#F88A2C" fill-rule="nonzero"></path>
                            </g>
                            <g id="五角星-(1)" transform="translate(108.000000, 0.000000)">
                                <rect id="矩形" fill-opacity="0" fill="#D8D8D8" x="0" y="0" width="24" height="24"></rect>
                                <path d="M13.0807014,1.28957711 L15.6637184,6.59911222 C15.8072194,7.02961506 16.2377222,7.31661695 16.6682251,7.31661695 L22.2647621,8.17762263 C23.4127697,8.32112358 23.8432725,9.75613307 22.9822668,10.6171388 L18.9642403,14.7786663 C18.6772384,15.0656682 18.5337374,15.496171 18.5337374,16.0701748 L19.5382441,21.9537137 C19.681745,23.1017213 18.5337374,23.962727 17.6727317,23.3887232 L12.6501985,20.6622051 C12.2196957,20.5187042 11.7891929,20.5187042 11.35869,20.6622051 L6.3361568,23.3887232 C5.33165018,23.962727 4.18364258,23.1017213 4.47064449,21.9537137 L5.47515112,16.0701748 C5.61865207,15.639672 5.47515112,15.2091691 5.04464828,14.7786663 L0.883120774,10.4736378 C0.0221150917,9.75613307 0.452617933,8.32112358 1.60062551,8.17762263 L7.19716251,7.31661695 C7.62766535,7.31661695 8.05816819,7.02961506 8.20166914,6.59911222 L10.7846862,1.28957711 C11.215189,0.141569535 12.6501985,0.141569535 13.0807014,1.28957711 Z" id="路径" fill="#F88A2C" fill-rule="nonzero"></path>
                            </g>
                            <g id="五角星-(1)" transform="translate(144.000000, 0.000000)">
                                <rect id="矩形" fill-opacity="0" fill="#D8D8D8" x="0" y="0" width="24" height="24"></rect>
                                <path d="M13.0807014,1.28957711 L15.6637184,6.59911222 C15.8072194,7.02961506 16.2377222,7.31661695 16.6682251,7.31661695 L22.2647621,8.17762263 C23.4127697,8.32112358 23.8432725,9.75613307 22.9822668,10.6171388 L18.9642403,14.7786663 C18.6772384,15.0656682 18.5337374,15.496171 18.5337374,16.0701748 L19.5382441,21.9537137 C19.681745,23.1017213 18.5337374,23.962727 17.6727317,23.3887232 L12.6501985,20.6622051 C12.2196957,20.5187042 11.7891929,20.5187042 11.35869,20.6622051 L6.3361568,23.3887232 C5.33165018,23.962727 4.18364258,23.1017213 4.47064449,21.9537137 L5.47515112,16.0701748 C5.61865207,15.639672 5.47515112,15.2091691 5.04464828,14.7786663 L0.883120774,10.4736378 C0.0221150917,9.75613307 0.452617933,8.32112358 1.60062551,8.17762263 L7.19716251,7.31661695 C7.62766535,7.31661695 8.05816819,7.02961506 8.20166914,6.59911222 L10.7846862,1.28957711 C11.215189,0.141569535 12.6501985,0.141569535 13.0807014,1.28957711 Z" id="路径" fill="#F88A2C" fill-rule="nonzero"></path>
                            </g>
                        </g>
                    </g>
                </g>
            </g>
        </g>
    </g>
</svg>