<svg width="40" height="40" viewBox="0 0 40 40" fill="none" xmlns="http://www.w3.org/2000/svg">
<g id="SVG">
<g id="svg-playlist" clip-path="url(#clip0_121_361)">
<g id="&#230;&#146;&#173;&#230;&#148;&#190;&#229;&#136;&#151;&#232;&#161;&#168; (3) 1">
<rect id="Rectangle 42123" x="3.55781" y="3.55708" width="32.8858" height="32.8858" rx="5.48436" stroke="white" stroke-width="2.6"/>
<path id="Vector" d="M19.3857 11.174H30.0436C30.8795 11.174 31.2974 11.5919 31.2974 12.4278C31.2974 13.2637 30.8795 13.6817 30.0436 13.6817H19.3857C18.5498 13.6817 18.1318 13.2637 18.1318 12.4278C18.1318 11.5919 18.5498 11.174 19.3857 11.174Z" fill="white"/>
<path id="Vector_2" d="M11.0507 19.8199H30.0416C30.8775 19.8199 31.2954 20.2379 31.2954 21.0738C31.2954 21.9097 30.8775 22.3277 30.0416 22.3277H11.0507C10.2148 22.3277 9.79688 21.9097 9.79688 21.0738C9.79688 20.2379 10.2148 19.8199 11.0507 19.8199Z" fill="white"/>
<path id="Vector_3" d="M11.0507 28.4923H30.0416C30.8775 28.4923 31.2954 28.9103 31.2954 29.7462C31.2954 30.5821 30.8775 31 30.0416 31H11.0507C10.2148 31 9.79688 30.5821 9.79688 29.7462C9.79688 28.9103 10.2148 28.4923 11.0507 28.4923Z" fill="white"/>
<path id="Vector_4" d="M15.5286 11.543C16.3153 12.0315 16.3149 12.8237 15.5286 13.3119L11.2214 15.986C10.4346 16.4745 9.79688 16.1564 9.79688 15.2767V9.57829C9.79688 8.69807 10.4351 8.38074 11.2214 8.86894L15.5286 11.5431V11.543Z" fill="white"/>
</g>
</g>
</g>
<defs>
<clipPath id="clip0_121_361">
<rect width="40" height="40" fill="white"/>
</clipPath>
</defs>
</svg>
