<svg width="84" height="84" viewBox="0 0 84 84" fill="none" xmlns="http://www.w3.org/2000/svg">
<g id="netflix logo">
<rect width="84" height="84" rx="21" fill="url(#paint0_linear_178_1037)"/>
<g id="Group 4534302">
<path id="Ellipse 210" d="M9 45.1852C9 57.0753 18.6388 66.7142 30.529 66.7142C32.6455 66.7142 34.6907 66.4088 36.6228 65.8396L49.7152 35.4086C46.1535 28.4327 38.899 23.6562 30.529 23.6562C18.6388 23.6562 9 33.2951 9 45.1852Z" fill="#E4F3FA"/>
<circle id="Ellipse 211" cx="30.5292" cy="45.1847" r="19.3626" fill="#00AEEF"/>
<path id="Subtract" d="M36.3046 61.7688C34.6825 50.4046 30.7755 43.418 39.2809 37.1514C43.166 33.2455 64.7359 39.7452 65.6643 40.0273C65.6274 38.9979 65.6951 40.0368 65.6951 40.0368C65.6951 40.0368 65.6847 40.0336 65.6643 40.0273C65.6708 40.2109 65.6807 40.4603 65.6949 40.793C66.3878 57.0338 52.4142 41.5414 43.2921 61.7707L36.3046 61.7688Z" fill="#E4F3FA"/>
<circle id="Ellipse 207" cx="29.595" cy="45.1846" r="8.22777" fill="white"/>
<g id="Group 158">
<path id="Rectangle 211 (Stroke)" fill-rule="evenodd" clip-rule="evenodd" d="M32.1265 59.0621C32.1265 43.4778 44.9117 30.8442 60.6831 30.8442L67.6574 30.8442V35.1571C67.6574 39.0089 64.5349 42.1314 60.6831 42.1314C51.2202 42.1314 43.4805 49.7116 43.4805 59.0621V62.674H32.1265V59.0621Z" fill="#7AC3E6"/>
<path id="Rectangle 213 (Stroke)" fill-rule="evenodd" clip-rule="evenodd" d="M32.1265 49.1444C32.1265 33.3139 44.9117 20.4807 60.6831 20.4807H62.6706L60.8006 29.4867H67.6574V31.9462H60.6831C51.2202 31.9462 43.4851 39.6461 43.4851 49.1444V62.6737H32.1265V49.1444Z" fill="#0CA5D3"/>
<path id="Rectangle 210 (Stroke)" fill-rule="evenodd" clip-rule="evenodd" d="M32.1265 48.2956C32.1265 32.1161 44.8226 19 60.4841 19H75.457C75.457 25.4718 70.2105 30.7183 63.7387 30.7183H60.4841C51.0872 30.7183 43.4695 38.5879 43.4695 48.2956V62.6923C43.4695 64.1429 42.2936 65.3188 40.843 65.3188H34.753C33.3024 65.3188 32.1265 64.1429 32.1265 62.6923L32.1265 48.2956Z" fill="#4A3AFF"/>
<path id="Rectangle 210 (Stroke)_2" fill-rule="evenodd" clip-rule="evenodd" d="M32.1265 48.2956C32.1265 32.1161 44.8226 19 60.4841 19H75.457C75.457 25.4718 70.2105 30.7183 63.7387 30.7183H60.4841C51.0872 30.7183 43.4695 38.5879 43.4695 48.2956V62.6923C43.4695 64.1429 42.2936 65.3188 40.843 65.3188H34.753C33.3024 65.3188 32.1265 64.1429 32.1265 62.6923L32.1265 48.2956Z" fill="#0CA5D3"/>
</g>
<path id="Rectangle 210 (Stroke)_3" fill-rule="evenodd" clip-rule="evenodd" d="M31.9487 48.2956C31.9487 32.1161 44.6449 19 60.3064 19H75.2793C75.2793 25.4718 70.0328 30.7183 63.561 30.7183H60.3064C50.9095 30.7183 43.6037 38.5879 43.6037 48.2956V65.4098C43.6037 66.8604 42.4277 68.0363 40.9771 68.0363H34.5753C33.1247 68.0363 31.9487 66.8604 31.9487 65.4098L31.9487 48.2956Z" fill="#008CCF"/>
</g>
</g>
<defs>
<linearGradient id="paint0_linear_178_1037" x1="42" y1="0" x2="42" y2="84" gradientUnits="userSpaceOnUse">
<stop stop-color="white"/>
<stop offset="1" stop-color="white"/>
</linearGradient>
</defs>
</svg>
