<svg width="60" height="60" viewBox="0 0 60 60" fill="none" xmlns="http://www.w3.org/2000/svg">
<g id="quotation marks icon" clip-path="url(#clip0_7_2465)">
<g id="quotation-marks-icon.svg fill" clip-path="url(#clip1_7_2465)">
<g id="quotation-marks-icon.svg" clip-path="url(#clip2_7_2465)">
<g id="Group">
<g id="Group_2">
<g id="Group_3">
<g id="Group_4">
<g id="Group_5">
<path id="Vector" d="M19.6602 24.6619C25.8011 26.4616 28.8731 30.3884 28.8731 36.4424C28.8731 39.8794 27.6182 42.7833 25.11 45.1553C22.6017 47.6099 19.5313 48.8373 15.8971 48.8373C12.6093 48.8373 9.71127 47.8143 7.20303 45.7697C4.26152 43.3962 2.79077 40.0026 2.79077 35.5831C2.79077 28.793 5.73228 22.7405 11.6153 17.4226C16.2855 13.2494 20.092 11.1628 23.0335 11.1628C25.2824 11.1628 26.4097 12.3496 26.4097 14.7216C26.4097 15.7852 25.4143 17.1357 23.4248 18.7716C21.7033 20.3942 20.4104 22.4179 19.6617 24.6619H19.6602ZM48.6405 24.6619C54.7815 26.5441 57.8534 30.471 57.8534 36.4424C57.8534 39.8794 56.5985 42.7833 54.0903 45.1553C51.4951 47.6099 48.3812 48.8373 44.747 48.8373C41.4607 48.8373 38.6047 47.8143 36.1833 45.7697C33.2418 43.3962 31.7711 40.0026 31.7711 35.5831C31.7711 28.793 34.6691 22.739 40.4652 17.4211C45.2238 13.2494 49.0289 11.1628 51.8834 11.1628C54.1338 11.1628 55.2582 12.3496 55.2582 14.7216C55.2582 15.7852 54.2627 17.1357 52.2732 18.7716C50.5616 20.3783 49.3079 22.4111 48.6405 24.6619Z" fill="#4EACEA"/>
</g>
</g>
</g>
</g>
</g>
</g>
</g>
</g>
<defs>
<clipPath id="clip0_7_2465">
<rect width="60" height="60" fill="white"/>
</clipPath>
<clipPath id="clip1_7_2465">
<rect width="60" height="60" fill="white"/>
</clipPath>
<clipPath id="clip2_7_2465">
<rect width="60" height="60" fill="white"/>
</clipPath>
</defs>
</svg>
