<svg width="20" height="20" viewBox="0 0 20 20" fill="none" xmlns="http://www.w3.org/2000/svg">
<g id="Safe">
<path id="Vector" d="M10.0098 19.9951C7.08008 19.9951 1.63574 15.5273 1.63574 11.3037V2.90527L2.46582 2.88086C2.49023 2.88086 4.3457 2.83203 6.27441 2.0752C8.25195 1.26953 9.52148 0.366211 9.52148 0.366211L10.0098 0L10.498 0.366211C10.498 0.366211 11.792 1.29395 13.7451 2.0752C15.6738 2.85645 17.5293 2.88086 17.5537 2.88086L18.3838 2.90527V11.3037C18.3838 15.5273 12.9395 19.9951 10.0098 19.9951ZM3.02734 4.29688V11.377C3.02734 14.7705 7.9834 18.6768 9.98535 18.6768C12.0117 18.6768 16.9434 14.7949 16.9434 11.377V4.29688C16.0889 4.19922 14.6729 3.97949 13.208 3.36914C11.7432 2.75879 10.6201 2.09961 10.0098 1.70898C9.39941 2.09961 8.25195 2.75879 6.7627 3.36914C5.29785 3.95508 3.90625 4.19922 3.02734 4.29688ZM9.5459 14.4775L5.98145 11.4502L7.08008 10.1562L9.375 12.085L13.7207 7.10449L14.9902 8.20312L9.5459 14.4775Z" fill="#55CB79"/>
</g>
</svg>
