<svg width="40" height="40" viewBox="0 0 40 40" fill="none" xmlns="http://www.w3.org/2000/svg">
<g id="&#231;&#188;&#150;&#231;&#187;&#132; 69">
<g id="&#229;&#173;&#151;&#229;&#185;&#149; (3)">
<rect id="&#231;&#159;&#169;&#229;&#189;&#162;" width="40" height="40" fill="#D8D8D8" fill-opacity="0.01"/>
<path id="&#229;&#189;&#162;&#231;&#138;&#182;" fill-rule="evenodd" clip-rule="evenodd" d="M1.39354 2.58065H38.422C39.1842 2.58595 39.8029 3.19873 39.8155 3.96092V31.4602C39.8155 32.22 39.1901 32.8388 38.422 32.8388H25.1169L20.8965 37.0194C20.6339 37.2799 20.2776 37.424 19.9077 37.4192C19.5379 37.424 19.1816 37.2799 18.919 37.0194L14.6986 32.8388H1.39354C0.625435 32.8388 0 32.22 0 31.4602V3.96092C0.00456851 3.19533 0.627946 2.57789 1.39354 2.58065ZM24.5313 30.0799H37.0284V5.34119H2.78708V30.0815H15.2842C15.6546 30.0763 16.0116 30.2204 16.2746 30.4814L19.9077 34.1012L23.5426 30.478C23.8076 30.2214 24.1624 30.0785 24.5313 30.0799Z" fill="white"/>
<path id="&#229;&#189;&#162;&#231;&#138;&#182;_2" fill-rule="evenodd" clip-rule="evenodd" d="M16.8183 22.5996C16.6049 23.0282 16.6307 23.5371 16.8863 23.942C17.142 24.3468 17.5904 24.5888 18.0691 24.5804C18.5958 24.5809 19.0788 24.2879 19.3217 23.8206L20.7948 20.9207H28.3266L29.8014 23.8206C30.0437 24.3 30.5281 24.5804 31.0523 24.5804C31.5313 24.5894 31.9803 24.3476 32.2364 23.9427C32.4924 23.5377 32.5184 23.0285 32.3048 22.5996L25.8232 9.75907C25.7961 9.71458 25.7625 9.67434 25.7237 9.63962C25.7026 9.61232 25.6839 9.58502 25.6652 9.55772C25.6294 9.50539 25.5935 9.45306 25.5412 9.40073C25.4758 9.33599 25.4008 9.28171 25.3189 9.23981L25.3097 9.23094L25.3097 9.23093C25.2715 9.19418 25.2346 9.1587 25.1978 9.14027C25.1563 9.12036 25.1364 9.12036 25.0966 9.12036C25.0063 9.08207 24.9115 9.05531 24.8146 9.04073C24.7287 9.01612 24.6401 9.00274 24.5508 9.00092C24.4848 9.00092 24.4177 9.01458 24.3391 9.03058L24.2887 9.04073C24.1981 9.05521 24.1099 9.082 24.0265 9.12036C24.0058 9.13032 23.9855 9.13032 23.9654 9.13032C23.9452 9.13032 23.9253 9.13032 23.9054 9.14027C23.8744 9.15033 23.854 9.17054 23.8337 9.19065C23.8138 9.21035 23.794 9.22996 23.7644 9.23981C23.6815 9.27962 23.6217 9.33935 23.562 9.40073C23.4903 9.47145 23.4289 9.55186 23.3795 9.63962C23.3596 9.6811 23.3198 9.72091 23.28 9.76073L16.8183 22.6012V22.5996ZM16.2127 13.5797H10.6601V13.5814C9.89204 13.5814 9.2666 12.9808 9.2666 12.221C9.27117 11.4554 9.89455 10.838 10.6601 10.8407H16.2127C16.5783 10.835 16.9311 10.9754 17.1927 11.2308C17.4544 11.4862 17.6032 11.8355 17.6063 12.2011C17.6063 12.9609 16.9792 13.5797 16.2127 13.5797ZM12.5182 20.9207H10.6601C9.89204 20.9207 9.2666 20.3002 9.2666 19.5404C9.27117 18.7748 9.89455 18.1574 10.6601 18.1601H12.5182C13.2838 18.1574 13.9072 18.7748 13.9117 19.5404C13.9117 20.3002 13.2846 20.9207 12.5182 20.9207ZM24.5309 13.4403L22.1486 18.1601H26.9132L24.5309 13.4403Z" fill="white"/>
</g>
</g>
</svg>
