<svg width="40" height="40" viewBox="0 0 40 40" fill="none" xmlns="http://www.w3.org/2000/svg">
<g id="&#231;&#188;&#150;&#231;&#187;&#132; 69">
<g id="&#229;&#173;&#151;&#229;&#185;&#149; (3)">
<rect id="&#231;&#159;&#169;&#229;&#189;&#162;" width="40" height="40" fill="#D8D8D8" fill-opacity="0.01"/>
<path id="&#229;&#189;&#162;&#231;&#138;&#182;" fill-rule="evenodd" clip-rule="evenodd" d="M1.39354 2.5807H38.422C39.1842 2.586 39.8029 3.19878 39.8155 3.96097V31.4602C39.8155 32.22 39.1901 32.8388 38.422 32.8388H25.1169L20.8965 37.0194C20.6339 37.28 20.2776 37.424 19.9077 37.4193C19.5379 37.424 19.1816 37.28 18.919 37.0194L14.6986 32.8388H1.39354C0.625435 32.8388 0 32.22 0 31.4602V3.96097C0.00456851 3.19538 0.627946 2.57794 1.39354 2.5807ZM24.5313 30.0799H37.0284V5.34124H2.78708V30.0816H15.2842C15.6546 30.0764 16.0116 30.2205 16.2746 30.4814L19.9077 34.1013L23.5426 30.4781C23.8076 30.2214 24.1624 30.0785 24.5313 30.0799Z" fill="#CADEF9"/>
<path id="&#229;&#189;&#162;&#231;&#138;&#182;_2" fill-rule="evenodd" clip-rule="evenodd" d="M16.8183 22.5995C16.6049 23.0281 16.6307 23.537 16.8863 23.9419C17.142 24.3467 17.5904 24.5888 18.0691 24.5803C18.5958 24.5808 19.0788 24.2878 19.3217 23.8205L20.7948 20.9206H28.3266L29.8014 23.8205C30.0437 24.3 30.5281 24.5803 31.0523 24.5803C31.5313 24.5894 31.9803 24.3476 32.2364 23.9426C32.4924 23.5377 32.5184 23.0284 32.3048 22.5995L25.8232 9.75901C25.7961 9.71452 25.7625 9.67428 25.7237 9.63956C25.7026 9.61226 25.6839 9.58496 25.6652 9.55766C25.6294 9.50533 25.5935 9.453 25.5412 9.40067C25.4758 9.33593 25.4008 9.28165 25.3189 9.23975L25.3097 9.23088L25.3097 9.23087C25.2715 9.19412 25.2346 9.15864 25.1978 9.14021C25.1563 9.1203 25.1364 9.1203 25.0966 9.1203C25.0063 9.082 24.9115 9.05525 24.8146 9.04067C24.7287 9.01606 24.6401 9.00268 24.5508 9.00085C24.4848 9.00085 24.4177 9.01452 24.3391 9.03052L24.2887 9.04067C24.1981 9.05515 24.1099 9.08194 24.0265 9.1203C24.0058 9.13025 23.9855 9.13025 23.9654 9.13025C23.9452 9.13025 23.9253 9.13025 23.9054 9.14021C23.8744 9.15026 23.854 9.17048 23.8337 9.19059C23.8138 9.21029 23.794 9.2299 23.7644 9.23975C23.6815 9.27956 23.6217 9.33929 23.562 9.40067C23.4903 9.47139 23.4289 9.5518 23.3795 9.63956C23.3596 9.68104 23.3198 9.72085 23.28 9.76067L16.8183 22.6012V22.5995ZM16.2127 13.5796H10.6601V13.5813C9.89204 13.5813 9.2666 12.9807 9.2666 12.2209C9.27117 11.4553 9.89455 10.8379 10.6601 10.8407H16.2127C16.5783 10.8349 16.9311 10.9753 17.1927 11.2307C17.4544 11.4861 17.6032 11.8354 17.6063 12.201C17.6063 12.9608 16.9792 13.5796 16.2127 13.5796ZM12.5182 20.9206H10.6601C9.89204 20.9206 9.2666 20.3002 9.2666 19.5403C9.27117 18.7748 9.89455 18.1573 10.6601 18.1601H12.5182C13.2838 18.1573 13.9072 18.7748 13.9117 19.5403C13.9117 20.3002 13.2846 20.9206 12.5182 20.9206ZM24.5309 13.4403L22.1486 18.1601H26.9132L24.5309 13.4403Z" fill="#CADEF9"/>
</g>
</g>
</svg>
