<?xml version="1.0" encoding="UTF-8"?>
<svg width="60px" height="60px" viewBox="0 0 60 60" version="1.1" xmlns="http://www.w3.org/2000/svg" xmlns:xlink="http://www.w3.org/1999/xlink">
    <title>white-arrow</title>
    <g id="页面-1" stroke="none" stroke-width="1" fill="none" fill-rule="evenodd">
        <g id="iDg-hulu设计" transform="translate(-1440.000000, -4651.000000)" fill-rule="nonzero">
            <g id="编组-62" transform="translate(0.000000, 4533.000000)">
                <g id="返回-(13)" transform="translate(1440.000000, 118.000000)">
                    <path d="M30,0 C46.5683713,0 60,13.4316667 60,30 C60,46.5691666 46.5683713,60 30,60 C13.4307949,60 0,46.5691667 0,30 C0,13.4316666 13.4307949,0 30,0 Z" id="路径" fill="#FFFFFF"></path>
                    <path d="M37.1006114,14.9583333 L22.4708171,29.5883333 L36.9238465,44.0408333 C37.6273653,44.7454249 37.6273653,45.8862418 36.9238465,46.5908334 C36.5856973,46.9293415 36.1267401,47.1195594 35.6481378,47.1195594 C35.1695356,47.1195594 34.7105784,46.9293415 34.3724291,46.5908334 L18.5611451,30.7791667 C17.8567072,30.0749553 17.8567072,28.933378 18.5611451,28.2291666 C18.7095608,28.0808333 18.8846582,27.9808333 19.0630906,27.895 L34.5500278,12.4083333 C35.0057946,11.9529685 35.6700098,11.7752078 36.2924699,11.9420118 C36.91493,12.1088158 37.4010685,12.594843 37.5677617,13.2170118 C37.7344549,13.8391806 37.5563783,14.5029686 37.1006114,14.9583333 Z" id="路径" fill="#999999"></path>
                </g>
            </g>
        </g>
    </g>
</svg>