<svg width="37" height="37" viewBox="0 0 37 37" fill="none" xmlns="http://www.w3.org/2000/svg">
<g id="&#232;&#190;&#147;&#229;&#133;&#165; 1">
<path id="Vector" d="M13.7152 10.5616C13.1262 11.1506 13.1262 12.1189 13.7152 12.7079L17.4441 16.4368C18.033 17.0258 19.0014 17.0258 19.5904 16.4368L23.3193 12.7079C23.9082 12.1189 23.9082 11.1506 23.3193 10.5616C22.7303 9.97266 21.7619 9.97266 21.173 10.5616L20.0348 11.6998V4.80566C20.0348 3.971 19.3519 3.28809 18.5172 3.28809C17.6825 3.28809 16.9996 3.971 16.9996 4.80566V11.6998L15.8614 10.5616C15.2689 9.97266 14.3041 9.97266 13.7152 10.5616Z" fill="#3D6CEC"/>
<path id="Vector_2" d="M32.4193 5.41992H21.8252V7.17598H32.1772V24.4113H4.86084V7.17598H15.2129V5.41992H4.61875C3.65039 5.41992 2.85547 6.21484 2.85547 7.1832V26.7491C2.85547 27.7175 3.65039 28.5124 4.61875 28.5124H13.8977V31.1465L11.9104 33.1338C11.9104 33.1338 11.6936 33.5674 12.2355 33.5674H24.8025C25.3445 33.5674 25.1277 33.1338 25.1277 33.1338L23.1404 31.1465V28.5124H32.4193C33.3877 28.5124 34.1826 27.7175 34.1826 26.7491V7.1832C34.1826 6.21484 33.3877 5.41992 32.4193 5.41992Z" fill="#3D6CEC"/>
</g>
</svg>
