<?xml version="1.0" encoding="UTF-8"?>
<svg width="36px" height="36px" viewBox="0 0 36 36" version="1.1" xmlns="http://www.w3.org/2000/svg" xmlns:xlink="http://www.w3.org/1999/xlink">
    <title>product</title>
    <defs>
        <rect id="path-1" x="0" y="0" width="36" height="36"></rect>
    </defs>
    <g id="页面-1" stroke="none" stroke-width="1" fill="none" fill-rule="evenodd">
        <g id="YT-Saver-for-Android-How-To" transform="translate(-388, -800)">
            <g id="product" transform="translate(388, 800)">
                <mask id="mask-2" fill="white">
                    <use xlink:href="#path-1"></use>
                </mask>
                <g id="蒙版"></g>
                <g id="我的产品" mask="url(#mask-2)" fill="#FFFFFF" fill-rule="nonzero">
                    <g transform="translate(4, 4)" id="形状">
                        <path d="M9.98100319,28 L3.58121546,28 C1.60464467,27.9969109 0.00308652797,26.3940204 0,24.4158052 L0,18.0088233 C0.00291551602,16.0305371 1.60457368,14.4275465 3.58121546,14.4246285 L9.98100319,14.4246285 C11.957574,14.4277176 13.5591322,16.0306081 13.5622187,18.0088233 L13.5622187,24.4142469 C13.5599895,26.3930706 11.9581809,27.9969088 9.98100319,28 L9.98100319,28 Z M3.58121546,16.3694438 C2.67699059,16.3704743 1.94422831,17.1038462 1.94319865,18.0088233 L1.94319865,24.4142469 C1.94336966,25.3198831 2.67633282,26.0542928 3.58121546,26.0554964 L9.98100319,26.0554964 C10.8854,26.0544659 11.6183017,25.3209545 11.6193314,24.4158052 L11.6193314,18.0088233 C11.6181302,17.1037958 10.8852786,16.3704739 9.98100319,16.3694438 L3.58121546,16.3694438 Z M24.1722702,28 L17.7703025,28 C15.7936608,27.997082 14.1920026,26.3940914 14.1890871,24.4158052 L14.1890871,18.0088233 C14.1920026,16.0305371 15.7936608,14.4275465 17.7703025,14.4246285 L24.1722702,14.4246285 C26.1489119,14.4275465 27.7505701,16.0305371 27.7534856,18.0088233 L27.7534856,24.4142469 C27.7514276,26.3931416 26.1495189,27.9970801 24.1722702,28 L24.1722702,28 Z M17.7703025,16.3694438 C16.8660777,16.3704743 16.1333154,17.1038462 16.1322857,18.0088233 L16.1322857,24.4142469 C16.1322857,25.3199542 16.8653487,26.0544645 17.7703025,26.0554964 L24.1722702,26.0554964 C25.0766164,26.0544656 25.8094289,25.320904 25.810287,24.4158052 L25.810287,18.0088233 C25.8092573,17.1038462 25.076495,16.3704743 24.1722702,16.3694438 L17.7703025,16.3694438 Z M20.9706635,14.0758826 C20.1243129,14.0781861 19.312219,13.7414962 18.715432,13.1408634 L14.8720093,9.2939316 C13.6282776,8.04674214 13.6282776,6.02721731 14.8720093,4.78002785 L18.7160548,0.934966017 C19.3140433,0.336325642 20.1251824,0 20.9709749,0 C21.8167675,0 22.6279065,0.336325642 23.225895,0.934966017 L27.0683835,4.78002785 C28.3105388,6.02774787 28.3105388,8.0458999 27.0683835,9.29361992 L23.225895,13.1408634 C22.6290884,13.7414667 21.8170073,14.0781513 20.9706635,14.0758826 L20.9706635,14.0758826 Z M20.9706635,1.94445759 C20.6411719,1.94372134 20.3250725,2.07491239 20.0927986,2.30880347 L16.2468846,6.15604697 C15.7610241,6.64280248 15.7610241,7.43146863 16.2468846,7.91822414 L20.0906188,11.7648443 C20.5602251,12.2357763 21.3801677,12.2357763 21.8510197,11.7648443 L25.694131,7.91853579 C26.1804064,7.43170883 26.1804064,6.64256228 25.694131,6.15573531 L21.8510197,2.30911512 C21.6179527,2.07484752 21.3009808,1.9435544 20.9706635,1.94445759 Z M9.98100319,13.8252888 L3.58121546,13.8252888 C1.60457369,13.8223708 0.00291553108,12.2193802 0,10.241094 L0,3.83348877 C0.00291551602,1.85520256 1.60457368,0.25221192 3.58121546,0.249293963 L9.98100319,0.249293963 C11.957645,0.252211905 13.5593032,1.85520255 13.5622187,3.83348877 L13.5622187,10.2398473 C13.5599891,12.2186204 11.9581305,13.8223692 9.98100319,13.8252888 Z M3.58121546,2.19504424 C2.6769906,2.19607476 1.94422832,2.92944665 1.94319865,3.83442376 L1.94319865,10.2398473 C1.94422832,11.1448245 2.6769906,11.8781963 3.58121546,11.8792269 L9.98100319,11.8792269 C10.8852786,11.8781967 11.6181302,11.1448749 11.6193314,10.2398473 L11.6193314,3.83348877 C11.6183014,2.92839012 10.8853497,2.19496803 9.98100319,2.19410925 L3.58121546,2.19504424 Z"></path>
                    </g>
                </g>
            </g>
        </g>
    </g>
</svg>