<?xml version="1.0" encoding="UTF-8"?>
<svg width="60px" height="60px" viewBox="0 0 60 60" version="1.1" xmlns="http://www.w3.org/2000/svg" xmlns:xlink="http://www.w3.org/1999/xlink">
    <title>license</title>
    <defs>
        <linearGradient x1="50%" y1="0%" x2="50%" y2="100%" id="linearGradient-1">
            <stop stop-color="#F9BF4A" offset="0%"></stop>
            <stop stop-color="#F08B24" offset="100%"></stop>
        </linearGradient>
    </defs>
    <g id="页面-1" stroke="none" stroke-width="1" fill="none" fill-rule="evenodd">
        <g id="support-icon" transform="translate(-760.000000, -516.000000)">
            <g id="营业执照" transform="translate(760.000000, 516.000000)">
                <rect id="矩形" fill-opacity="0" fill="#D8D8D8" x="0" y="0" width="60" height="60"></rect>
                <path d="M53.5491176,16.9561029 L43.4458824,16.9561029 C43.1789706,20.3296323 40.2760294,22.9866176 36.7315442,22.9866176 L23.2683089,22.9866176 L23.2683089,22.9866176 C19.7241912,22.9866176 16.8216177,20.3296323 16.5543383,16.9561029 L6.45110294,16.9561029 C3.87352941,16.9561029 1.76470588,19.0031617 1.76470588,21.505 L1.76470588,51.0718382 C1.76470588,53.5733088 3.87352941,55.6199999 6.45110294,55.6199999 L53.5491176,55.6199999 C56.1263235,55.6199999 58.235147,53.5733088 58.235147,51.0718382 L58.235147,21.505 C58.235147,19.0031617 56.1263235,16.9561029 53.5491176,16.9561029 Z M16.0538235,25.1458088 C18.9655882,25.1458088 21.3258823,27.4697059 21.3258823,30.3369853 C21.3258823,33.2046323 18.9655882,35.5274264 16.0538235,35.5274264 C13.1420588,35.5274264 10.7816176,33.2046323 10.7816176,30.3369853 C10.7816176,27.4697059 13.1420588,25.1458088 16.0538235,25.1458088 Z M25.7494118,43.6785294 C25.7494118,45.555 24.5338235,46.4380882 22.6007353,46.4380882 L9.91213235,46.4380882 C7.97889706,46.4380882 6.77963233,45.555 6.77963233,43.6785294 L6.77963233,38.9443382 C6.77963233,37.0686029 10.3072059,35.6369853 12.2404412,35.6369853 C12.2404412,35.6369853 12.8027206,35.6450735 13.0670588,35.7700735 C13.331397,35.8947058 15.2163235,37.1064705 16.0538235,37.1064705 C16.8916911,37.1064705 19.0083823,35.9149264 19.2944118,35.7700735 C19.5800735,35.62375 19.9521324,35.6480147 19.9521324,35.6480147 C21.8852206,35.6480147 25.7494118,37.0686029 25.7494118,38.9443382 L25.7494118,43.6785294 L25.7494118,43.6785294 Z M40.3245588,46.1394853 L31.5947794,46.1394853 C30.9230883,46.1394853 30.0244118,45.3714705 30.0244118,44.4336029 C30.0244118,43.4957353 30.9988235,42.7269853 31.6705147,42.7269853 L40.2230883,42.7269853 C40.8955147,42.7269853 41.74,43.4957353 41.74,44.4336029 C41.74,45.3715441 40.9969853,46.1394853 40.3245588,46.1394853 Z M50.6421324,39.4524265 L31.8969853,39.4524265 C30.6080147,39.4524265 30.0001471,38.6855147 30.0001471,37.7476471 C30.0001471,36.8094118 30.6080147,36.0410294 31.8969853,36.0410294 L50.6421324,36.0410294 C51.9311029,36.0410294 52.4568383,36.8094117 52.4568383,37.7476471 C52.4568383,38.6855147 51.9311029,39.4524265 50.6421324,39.4524265 Z M50.6663971,32.8347794 L31.9208824,32.8347794 C30.6322794,32.8347794 30.0244118,32.0675 30.0244118,31.1296324 C30.0244118,30.1913971 30.6322794,29.4230147 31.9208824,29.4230147 L50.6663971,29.4230147 C51.9553676,29.4230147 52.4807353,30.191397 52.4807353,31.1296324 C52.4807353,32.0675 51.9553676,32.8347794 50.6663971,32.8347794 Z M41.6870588,15.5686765 C41.6870588,18.7054412 39.0675735,21.2484559 35.8359559,21.2484559 L24.14,21.2484559 L24.14,21.2484559 L24.14,21.2484559 C20.9083824,21.2484559 18.28875,18.7054412 18.28875,15.5686765 C18.28875,12.4385294 20.8980882,9.89992649 24.1205147,9.89000002 C24.1502941,6.77786768 26.7574265,4.26352941 29.9708824,4.26352941 C33.1833823,4.26352941 35.7911029,6.77786763 35.8208824,9.88963235 C35.8256618,9.88963235 35.8308088,9.88926469 35.8359559,9.88926469 C39.0675735,9.88926469 41.6870588,12.4322794 41.6870588,15.5686765 Z M29.9881617,7.22529408 C28.0630147,7.22529408 26.5025,8.73999998 26.5025,10.6087499 C26.5025,12.4771323 28.0629411,13.9918382 29.9881617,13.9918382 C31.9131618,13.9918382 33.4734559,12.4771323 33.4734559,10.6087499 C33.4734559,8.73999998 31.9131618,7.22529408 29.9881617,7.22529408 Z" id="形状" fill="url(#linearGradient-1)" fill-rule="nonzero"></path>
            </g>
        </g>
    </g>
</svg>