<?xml version="1.0" encoding="UTF-8"?>
<svg width="60px" height="60px" viewBox="0 0 60 60" version="1.1" xmlns="http://www.w3.org/2000/svg" xmlns:xlink="http://www.w3.org/1999/xlink">
    <title>other</title>
    <defs>
        <linearGradient x1="50%" y1="0%" x2="50%" y2="100%" id="linearGradient-1">
            <stop stop-color="#9F9F9F" offset="0%"></stop>
            <stop stop-color="#666666" offset="100%"></stop>
        </linearGradient>
    </defs>
    <g id="页面-1" stroke="none" stroke-width="1" fill="none" fill-rule="evenodd">
        <g id="support-https://idownergo.com/support/" transform="translate(-1440.000000, -516.000000)" fill="url(#linearGradient-1)" fill-rule="nonzero">
            <g id="编组-7" transform="translate(1440.000000, 516.000000)">
                <g id="其他-(3)" transform="translate(1.000000, 1.000000)">
                    <path d="M29,4.61299969e-15 C12.9837142,4.61299969e-15 0,12.9837806 0,29 C0,45.0162194 12.9837806,58 29,58 C45.0162194,58 58,45.0162858 58,29 C58,12.9837142 45.0162194,4.61299969e-15 29,4.61299969e-15 Z M15.8826845,32.5873063 C13.9014513,32.5873063 12.2953782,30.9812332 12.2953782,29 C12.2953782,27.0187668 13.9014512,25.4126937 15.8826845,25.4126937 C17.8639177,25.4126937 19.4699908,27.0187668 19.4699908,29 C19.4699908,30.9812332 17.8639176,32.5873063 15.8826845,32.5873063 Z M29,32.5873063 C27.0187669,32.5873063 25.4126937,30.9812332 25.4126937,29 C25.4126937,27.0187668 27.0187668,25.4126937 29,25.4126937 C30.9812331,25.4126937 32.5873063,27.0187668 32.5873063,29 C32.5873063,30.9812332 30.9812331,32.5873063 29,32.5873063 Z M42.1173155,32.5873063 C40.1360824,32.5873063 38.5300092,30.9812332 38.5300092,29 C38.5300092,27.0187668 40.1360823,25.4126937 42.1173155,25.4126937 C44.0985488,25.4126937 45.7046218,27.0187668 45.7046218,29 C45.7046218,30.9812332 44.0985488,32.5873063 42.1173155,32.5873063 Z" id="形状"></path>
                </g>
            </g>
        </g>
    </g>
</svg>