<?xml version="1.0" encoding="UTF-8"?>
<svg width="60px" height="60px" viewBox="0 0 60 60" version="1.1" xmlns="http://www.w3.org/2000/svg" xmlns:xlink="http://www.w3.org/1999/xlink">
    <title>payment</title>
    <defs>
        <rect id="path-1" x="1000" y="466" width="260" height="220" rx="20"></rect>
        <filter x="-2.5%" y="-2.5%" width="105.0%" height="105.9%" filterUnits="objectBoundingBox" id="filter-2">
            <feOffset dx="0" dy="1" in="SourceAlpha" result="shadowOffsetOuter1"></feOffset>
            <feGaussianBlur stdDeviation="2" in="shadowOffsetOuter1" result="shadowBlurOuter1"></feGaussianBlur>
            <feColorMatrix values="0 0 0 0 0.478431373   0 0 0 0 0.196078431   0 0 0 0 0.992156863  0 0 0 0.5 0" type="matrix" in="shadowBlurOuter1"></feColorMatrix>
        </filter>
        <linearGradient x1="50%" y1="0%" x2="50%" y2="100%" id="linearGradient-3">
            <stop stop-color="#5C81FD" offset="0%"></stop>
            <stop stop-color="#2F4AF9" offset="100%"></stop>
        </linearGradient>
    </defs>
    <g id="页面-1" stroke="none" stroke-width="1" fill="none" fill-rule="evenodd">
        <g id="support-https://idownergo.com/support/" transform="translate(-1100.000000, -516.000000)">
            <rect id="矩形" fill="#FFFFFF" x="0" y="0" width="1920" height="2914"></rect>
            <rect id="矩形" fill="#FFFFFF" x="0" y="72" width="1920" height="2255"></rect>
            <g id="矩形">
                <use fill="black" fill-opacity="1" filter="url(#filter-2)" xlink:href="#path-1"></use>
                <use fill="#FFFFFF" fill-rule="evenodd" xlink:href="#path-1"></use>
            </g>
            <g id="退款" transform="translate(1100.000000, 516.000000)">
                <rect id="矩形" fill-opacity="0" fill="#D8D8D8" x="0" y="0" width="60" height="60"></rect>
                <path d="M28.9423529,11.1764706 C18.5447059,11.1764706 10.1188235,19.6047059 10.1188235,30 C10.1188235,40.3964706 18.5447059,48.8235294 28.9423529,48.8235294 C39.337647,48.8235294 47.7658823,40.3964706 47.7658823,30 C47.7658823,19.6047059 39.337647,11.1764706 28.9423529,11.1764706 Z M28.9423529,1.76470588 C19.6105882,1.76470588 11.3482353,6.3 6.20823531,13.2764706 L4.50235298,12.2917647 L4.49176469,12.297647 C3.93647059,12.0082353 3.24705884,12.1964706 2.93176469,12.7435294 C2.8305882,12.9188236 2.79529408,13.1070588 2.79058822,13.2952941 L2.76470588,13.3082353 L3.39647059,19.6847059 L3.42588233,19.7011765 C3.45882349,20.0705883 3.64352941,20.4211765 3.98941176,20.62 C4.33411767,20.8188235 4.72941178,20.802353 5.06588235,20.6458824 L5.0952941,20.6635294 L10.82,18.0705882 L10.8211764,18.0458824 C11.0282353,17.9470588 11.2141176,17.8094118 11.3364706,17.5964706 C11.6423529,17.0670588 11.4752941,16.4094118 10.9882352,16.0611765 L10.9905882,16.0364706 L9.30352937,15.062353 C13.8164706,9.14000002 20.9188235,5.29411765 28.9423529,5.29411765 C42.5870588,5.29411765 53.6482353,16.3564706 53.6482353,30 C53.6482353,43.6470588 42.5870588,54.7058824 28.9423529,54.7058824 C19.5552941,54.7058824 11.3929412,49.4729412 7.21176471,41.7647059 L4,43.2058823 C8.73882355,52.14 18.1211765,58.2352941 28.9423529,58.2352941 C44.5352941,58.2352941 57.1776471,45.5952941 57.1776471,30 C57.1776471,14.4070588 44.5352941,1.76470588 28.9423529,1.76470588 Z" id="形状" fill="url(#linearGradient-3)" fill-rule="nonzero"></path>
                <g id="$" transform="translate(22.374118, 18.677647)" fill="#FFFFFF" fill-rule="nonzero">
                    <path d="M5.98908611,13.2122869 L4.79126889,12.6678246 C3.02479096,11.8692797 1.80277541,11.0525862 1.12522224,10.2177439 C0.447669063,9.38290157 0.108892475,8.38472055 0.108892475,7.22320082 C0.108892475,5.91649113 0.665454012,4.76707056 1.77857709,3.77493912 C2.89170016,2.78280769 4.29520317,2.28674197 5.98908611,2.28674197 L5.98908611,1 C5.98908611,0.44771525 6.43680136,5.91980459e-16 6.98908611,0 L7.67510048,0 C8.22738523,8.7960173e-16 8.67510048,0.44771525 8.67510048,1 L8.67510048,2.35933695 L8.67510048,2.35933695 C11.8450814,2.67391521 13.587361,4.24680651 13.9019393,7.07801086 L10.3084876,7.69506821 C10.114901,6.41255684 9.57043861,5.66240868 8.67510048,5.44462373 L8.67510048,10.2358926 C11.0707349,11.2280241 12.6496758,12.2020067 13.4119231,13.1578407 C14.1741705,14.1136746 14.5552941,15.208649 14.5552941,16.4427637 C14.5552941,17.870465 14.0047822,19.0803814 12.9037583,20.0725128 C11.8027343,21.0646443 10.3931818,21.6454041 8.67510048,21.8147924 L8.67510048,23.2104269 C8.67510048,23.7627116 8.22738523,24.2104269 7.67510048,24.2104269 L6.98908611,24.2104269 C6.43680136,24.2104269 5.98908611,23.7627116 5.98908611,23.2104269 L5.98908611,21.7784949 L5.98908611,21.7784949 C2.38353528,21.41552 0.387173243,19.6732404 0,16.5516562 L3.95642658,15.7168138 C3.95642658,17.2171102 4.63397976,18.1850433 5.98908611,18.6206132 L5.98908611,13.2122869 Z M5.98908611,9.25586035 L5.98908611,5.55351621 C5.48092123,5.55351621 5.05745049,5.70475576 4.7186739,6.00723485 C4.37989732,6.30971395 4.21050902,6.70293678 4.21050902,7.18690333 C4.21050902,8.00964647 4.67027725,8.63880299 5.5898137,9.07437289 L5.98908611,9.25586035 Z M8.67510048,14.3375092 L8.67510048,18.7658031 C9.9092152,18.5238199 10.5262726,17.8462667 10.5262726,16.7331436 C10.5262726,15.7168138 10.0786035,15.0029632 9.18326537,14.5915916 L8.67510048,14.3375092 Z" id="形状"></path>
                </g>
            </g>
        </g>
    </g>
</svg>