<?xml version="1.0" encoding="UTF-8"?>
<svg width="60px" height="60px" viewBox="0 0 60 60" version="1.1" xmlns="http://www.w3.org/2000/svg" xmlns:xlink="http://www.w3.org/1999/xlink">
    <title>product</title>
    <defs>
        <linearGradient x1="50%" y1="0%" x2="50%" y2="100%" id="linearGradient-1">
            <stop stop-color="#B261FF" offset="0%"></stop>
            <stop stop-color="#7A32FD" offset="100%"></stop>
        </linearGradient>
    </defs>
    <g id="页面-1" stroke="none" stroke-width="1" fill="none" fill-rule="evenodd">
        <g id="support-https://idownergo.com/support/" transform="translate(-420.000000, -516.000000)">
            <g id="产品" transform="translate(420.000000, 516.000000)">
                <rect id="矩形" fill-opacity="0" fill="#D8D8D8" x="0" y="0" width="60" height="60"></rect>
                <path d="M14.9318909,2 C22.064973,2.00515113 27.8447464,7.79010507 27.8447464,14.9244255 L27.8447464,27.8395193 L14.9318909,27.8395193 C7.93292222,27.6513702 2.35689917,21.9224697 2.35689917,14.9197597 C2.35689917,7.91704963 7.93292222,2.18814906 14.9318909,2 Z M14.9318909,32.1507717 L27.8447464,32.1507717 L27.8447464,45.0705314 C27.842858,50.2983974 24.6922621,55.0102687 19.8622779,57.0087059 C15.0322938,59.0071432 9.47426582,57.8985213 5.7802491,54.1998599 C2.08623238,50.5011986 0.98382395,44.9410095 2.98714561,40.1123557 C4.99046726,35.2837019 9.704932,32.1376657 14.9318909,32.1414366 L14.9318909,32.1507717 Z M45.068107,2 C52.0670757,2.18814906 57.6430988,7.91704963 57.6430988,14.9197597 C57.6430988,21.9224697 52.0670757,27.6513702 45.068107,27.8395193 L32.1599166,27.8395193 L32.1599166,14.9244255 C32.1599166,7.79192522 37.9368471,2.00772473 45.068107,2 Z M32.1599166,32.1507717 L45.0774371,32.1507717 C50.3043977,32.1507721 55.0165903,35.3002123 57.0164255,40.130312 C59.0162606,44.9604116 57.909838,50.5198034 54.2131515,54.2157959 C50.516465,57.9117885 44.9576376,59.0163955 40.1290975,57.0144697 C35.3005573,55.012544 32.1533646,50.2983977 32.1552507,45.0705314 L32.1552507,32.14144 L32.1599166,32.1507717 Z" id="形状" fill="url(#linearGradient-1)" fill-rule="nonzero"></path>
            </g>
        </g>
    </g>
</svg>