<?xml version="1.0" encoding="UTF-8"?>
<svg width="236px" height="236px" viewBox="0 0 236 236" version="1.1" xmlns="http://www.w3.org/2000/svg" xmlns:xlink="http://www.w3.org/1999/xlink">
    <title>still_need_help</title>
    <g id="页面-1" stroke="none" stroke-width="1" fill="none" fill-rule="evenodd">
        <g id="support-icon" transform="translate(-462.000000, -1552.000000)">
            <g id="编组-10" transform="translate(462.000000, 1552.000000)">
                <circle id="椭圆形" fill="#7A32FD" opacity="0.0628494989" cx="118" cy="118" r="118"></circle>
                <g id="客服-(3)" transform="translate(38.000000, 38.000000)">
                    <rect id="矩形" fill-opacity="0" fill="#D8D8D8" x="0" y="0" width="160" height="160"></rect>
                    <path d="M18.8235294,53.4857332 C18.8235294,70.9130956 28.1209161,87.0166426 43.2134546,95.7303239 C58.3059931,104.444005 76.9007675,104.444005 91.9933059,95.7303239 C107.085844,87.0166426 116.383231,70.9130956 116.383231,53.4857332 C116.383231,26.5453655 94.543748,4.70588235 67.6033803,4.70588235 C40.6630126,4.70588235 18.8235294,26.5453655 18.8235294,53.4857332 Z" id="路径" fill="#8CF6FB" fill-rule="nonzero"></path>
                    <path d="M107.687693,148.500399 L103.23388,138.956515 C103.23388,138.956515 126.351288,121.353352 130.8051,107.779828 C128.896323,108.204001 126.77546,108.628174 124.866684,108.628173 C114.262368,108.628173 105.778916,100.144721 105.778916,89.5404056 L105.778916,85.2986796 C105.778916,74.6943641 114.262368,66.2109118 124.866684,66.2109118 C127.835892,66.2109118 130.8051,66.8471707 133.350136,68.3317749 L133.350136,67.4834296 C133.350136,38.6396916 110.020642,15.3101978 81.3889904,15.3101978 C52.7573388,15.3101978 29.4278449,38.6396916 29.4278449,67.2713432 L29.4278449,68.1196885 C38.7596424,63.4537897 50.2123031,67.2713432 54.8782019,76.6031409 C56.1507197,79.3602629 56.999065,82.1173849 56.999065,85.0865932 L56.999065,89.3283194 C56.999065,99.9326349 48.5156126,108.416087 37.9112972,108.416087 C29.0036722,108.416087 21.3685651,102.265584 19.2477021,93.7821318 C19.0356157,93.1458728 18.8235294,92.509614 18.8235294,91.6612687 L18.8235294,67.2713432 C18.8235294,32.701275 46.8189222,4.70588235 81.3889904,4.70588235 C115.959059,4.70588235 143.954451,32.701275 143.954451,67.2713432 L143.954451,91.6612687 C143.954451,131.533495 107.687693,148.500399 107.687693,148.500399 Z M29.4278449,89.5404056 C29.4278449,94.2063044 33.2453984,98.0238579 37.9112972,98.0238579 C42.577196,98.0238579 46.3947496,94.2063044 46.3947496,89.5404056 L46.3947496,85.2986796 C46.3947496,80.6327807 42.577196,76.8152272 37.9112972,76.8152272 C33.2453984,76.8152272 29.4278449,80.6327807 29.4278449,85.2986796 L29.4278449,89.5404056 L29.4278449,89.5404056 Z M133.350136,85.2986796 C133.350136,80.6327807 129.532582,76.8152272 124.866684,76.8152272 C120.200785,76.8152272 116.383231,80.6327807 116.383231,85.2986796 L116.383231,89.5404056 C116.383231,94.2063044 120.200785,98.0238579 124.866684,98.0238579 C129.532582,98.0238579 133.350136,94.2063044 133.350136,89.5404056 L133.350136,85.2986796 Z" id="形状" fill="#7A32FD" fill-rule="nonzero"></path>
                    <path d="M111.929419,144.682846 C112.141505,150.19709 107.899779,155.075075 102.173449,155.287161 L101.53719,155.287161 C95.5987731,155.499247 90.9328743,150.833349 90.7207879,144.894932 C90.5087016,138.956515 95.1746004,134.290617 101.113017,134.07853 C107.051434,133.866444 111.717332,138.532343 111.929419,144.682846 C111.929419,144.470759 111.929419,144.682846 111.929419,144.682846 Z" id="路径" fill="#D098FF" fill-rule="nonzero"></path>
                </g>
            </g>
        </g>
    </g>
</svg>